<?xml version="1.0" standalone="no"?>
<!DOCTYPE svg PUBLIC "-//W3C//DTD SVG 1.1//EN" "http://www.w3.org/Graphics/SVG/1.1/DTD/svg11.dtd">
<svg xmlns="http://www.w3.org/2000/svg">
<defs >
<font id="RobotoCondensed" horiz-adv-x="980" ><font-face
    font-family="Roboto Condensed Light"
    units-per-em="2048"
    panose-1="2 0 0 0 0 0 0 0 0 0"
    ascent="1900"
    descent="-500"
    alphabetic="0" />
<glyph unicode=" " horiz-adv-x="456" />
<glyph unicode="!" horiz-adv-x="435" d="M229 406H126L303 1456H418L229 406ZM52 71Q54 102 75 127T129 154Q164 155 182 129T198 71Q196 40 175 16T121 -9Q87 -10 69 14T52 71Z" />
<glyph unicode="&quot;" horiz-adv-x="580" d="M361 1390L293 1081H212L287 1536H384L361 1390ZM590 1392L522 1081H440L516 1536H613L590 1392Z" />
<glyph unicode="#" horiz-adv-x="1030" d="M599 410H356L221 0H129L264 410H60L77 505H294L438 942H214L231 1040H469L607 1456H700L562 1040H806L944 1456H1037L900 1040H1081L1064 942H867L723 505H927L910 410H693L558 0H464L599 410ZM387 505H630L774 942H531L387
505Z" />
<glyph unicode="$" horiz-adv-x="976" d="M717 366Q727 465 681 539T518 670T344 787T260 919T242 1087Q254 1248 351 1353T598 1476L634 1678H728L692 1472Q795 1453 855 1373T923 1169Q928 1096 921 1027H812Q817 1079 813 1138Q806 1242 757 1303T623 1368Q513
1370 439 1293T351 1088Q341 986 385 916T552 785T733 662Q842 549 828 369Q816 208 718 105T459 -19L426 -208H334L368 -18Q224 2 152 118T96 419H206Q193 263 251 176T423 86Q540 84 622 164T717 366Z" />
<glyph unicode="%" horiz-adv-x="1280" d="M479 1478Q578 1475 633 1391T681 1176L674 1109Q659 968 585 882T405 799Q306 801 249 886T202 1099L207 1155Q220 1301 295 1390T479 1478ZM292 1097Q286 998 318 944T411 888Q478 886 524 942T585 1098L592 1177Q601
1266 570 1326T473 1389Q404 1391 357 1331T299 1176L292 1097ZM929 658Q1031 655 1086 569T1132 357L1125 279Q1110 144 1035 60T856 -22Q755 -20 700 67T654 279L660 343Q673 483 746 571T929 658ZM742 277Q734 187 765 127T861 65Q931 63 979 124T1037 287T1044
427Q1039 491 1008 529T924 569Q854 571 807 512T749 358L742 277ZM304 121L239 175L1013 1307L1076 1256L304 121Z" />
<glyph unicode="&amp;" horiz-adv-x="1077" d="M386 794Q288 990 301 1137Q315 1290 400 1384T616 1477Q728 1473 790 1392T845 1198Q832 1032 647 883L519 780L762 327Q854 471 883 652H982Q950 404 816 233L940 0H816L742 140Q579 -23 400 -20Q245 -18 155 90T79
364Q89 475 159 577T373 785L386 794ZM405 84Q526 81 648 191L690 231L439 700L432 712L406 690Q212 525 191 364Q176 245 235 166T405 84ZM409 1070Q419 979 472 866L594 966Q729 1079 738 1199Q745 1273 709 1322T607 1374Q543 1374 496 1332T425 1215T409 1070Z"
/>
<glyph unicode="&apos;" horiz-adv-x="348" d="M344 1391L281 1089H190Q244 1397 266 1536H367L344 1391Z" />
<glyph unicode="(" horiz-adv-x="588" d="M132 585Q190 960 327 1232T667 1634L684 1549Q538 1431 435 1228T276 756T213 250L212 179Q215 -217 381 -390L347 -469Q238 -370 177 -199T109 213Q103 393 130 569L132 585Z" />
<glyph unicode=")" horiz-adv-x="599" d="M-88 -471L-106 -390Q175 -158 294 372Q357 654 363 914Q373 1363 195 1555L228 1632Q339 1530 399 1356T467 949Q473 670 403 369T207 -146T-88 -471Z" />
<glyph unicode="*" horiz-adv-x="853" d="M417 1003L114 1109L161 1209L464 1085L525 1456H629L557 1088L890 1213L904 1104L560 990L727 695L638 635L483 938L234 639L156 706L417 1003Z" />
<glyph unicode="+" horiz-adv-x="992" d="M565 742H921L900 627H546L462 146H349L433 627H84L104 742H453L534 1206H646L565 742Z" />
<glyph unicode="," horiz-adv-x="390" d="M-8 -275L-83 -217Q24 -94 50 31L78 190H194L171 45Q142 -143 -8 -275Z" />
<glyph unicode="-" horiz-adv-x="523" d="M449 590H54L72 693H467L449 590Z" />
<glyph unicode="." horiz-adv-x="484" d="M51 73Q53 108 78 133T139 159Q176 160 198 135T219 73Q216 38 191 15T130 -9Q92 -9 70 16T51 73Z" />
<glyph unicode="/" horiz-adv-x="716" d="M17 -125H-88L683 1456H786L17 -125Z" />
<glyph unicode="0" horiz-adv-x="976" d="M393 -20Q131 -13 110 348Q103 475 125 622L168 903Q219 1200 333 1340T623 1477Q750 1474 823 1384T908 1113Q914 1006 895 852L855 595Q801 262 685 118T393 -20ZM787 869Q803 991 803 1065Q803 1363 615 1373Q491 1379
407 1272T282 930L235 627Q214 490 214 397Q214 88 401 82Q525 76 609 186T734 532L787 869Z" />
<glyph unicode="1" horiz-adv-x="976" d="M488 0H377L603 1305L258 1158L280 1279L716 1461H738L488 0Z" />
<glyph unicode="2" horiz-adv-x="976" d="M786 0H34L50 100L517 635L605 739Q762 927 781 1081Q796 1209 745 1289T589 1373Q469 1376 388 1286T280 1037L172 1036Q195 1229 311 1355T595 1477Q696 1475 768 1425T873 1289T896 1092Q876 900 680 667L188 103H802L786 0Z" />
<glyph unicode="3" horiz-adv-x="976" d="M378 794L476 792Q607 794 693 875T791 1084Q803 1216 751 1293T594 1374Q480 1376 403 1296T301 1075L194 1074Q216 1252 328 1366T601 1477Q755 1473 836 1361T902 1080Q893 970 826 882T648 742Q741 701 783 613T816
404Q806 283 750 184T601 31T396 -20Q291 -18 214 36T99 185T71 394H180Q173 310 197 239T274 126T403 83Q529 79 610 166T706 400Q719 532 658 608T471 689L361 690L378 794Z" />
<glyph unicode="4" horiz-adv-x="976" d="M713 470H895L877 366H696L632 0H521L585 366H33L43 437L762 1456H885L713 470ZM183 470H603L743 1275L703 1214L183 470Z" />
<glyph unicode="5" horiz-adv-x="976" d="M220 748L387 1456H988L970 1342H467L345 854Q447 935 568 933Q701 931 776 835T859 575Q865 419 816 276T668 54T437 -21Q286 -17 203 95T125 384L229 383Q229 238 285 162T443 82Q569 77 649 182T746 470Q760 626 706
722T542 821Q470 823 415 796T308 720L220 748Z" />
<glyph unicode="6" horiz-adv-x="976" d="M842 1467L830 1360H810Q609 1358 474 1220T260 789Q389 960 566 956Q692 954 767 857T849 587Q855 429 799 281T646 54T427 -21Q331 -18 261 34T152 184T110 400Q107 484 136 668Q196 1051 366 1255T804 1467H842ZM542
852Q442 854 352 782T238 618Q221 480 221 428Q219 336 243 254T316 128T434 83Q569 78 654 220T740 556Q740 692 689 770T542 852Z" />
<glyph unicode="7" horiz-adv-x="976" d="M990 1387L272 0H152L865 1352H198L215 1456H999L990 1387Z" />
<glyph unicode="8" horiz-adv-x="976" d="M924 1090Q901 857 673 743Q759 692 800 601T833 395Q816 209 696 92T400 -21Q240 -17 151 94T77 378Q88 502 160 598T360 751Q306 787 273 844Q217 940 228 1072Q243 1250 353 1365T628 1477Q776 1473 858 1364T924 1090ZM723
395Q735 522 675 607T504 696Q380 700 290 608T187 377Q173 248 233 166T407 82Q536 78 623 169T723 395ZM813 1091Q825 1208 771 1289T620 1373Q509 1377 430 1291T339 1073Q327 953 381 877T531 798Q643 794 722 880T813 1091Z" />
<glyph unicode="9" horiz-adv-x="976" d="M752 663Q610 470 439 477Q356 478 293 525T196 662T160 856Q154 1012 211 1165T365 1399T589 1477Q741 1473 820 1354T897 1017Q896 923 869 753Q810 374 647 185T217 -11H175L188 95H222Q421 99 550 229T752 663ZM462
581Q556 577 654 656T777 837L789 996Q796 1168 744 1268T583 1372Q444 1377 357 1228T269 888Q269 745 320 664T462 581Z" />
<glyph unicode=":" horiz-adv-x="410" d="M293 73Q295 108 320 133T381 159Q418 160 440 135T461 73Q458 38 433 15T372 -9Q334 -9 312 16T293 73ZM198 995Q200 1030 225 1055T286 1081Q323 1082 345 1057T366 995Q363 960 338 937T277 913Q239 913 217 938T198 995Z" />
<glyph unicode=";" horiz-adv-x="380" d="M187 995Q189 1030 214 1055T275 1081Q312 1082 334 1057T355 995Q352 960 327 937T266 913Q228 913 206 938T187 995ZM-6 -275L-81 -217Q26 -94 52 31L80 190H196L173 45Q144 -143 -6 -275Z" />
<glyph unicode="&lt;" horiz-adv-x="901" d="M205 652L713 353L691 231L82 611L99 709L841 1088L816 952L205 652Z" />
<glyph unicode="=" horiz-adv-x="970" d="M862 828H179L198 936H881L862 828ZM790 417H107L127 525H810L790 417Z" />
<glyph unicode="&gt;" horiz-adv-x="915" d="M704 662L183 963L205 1083L832 704L814 606L56 226L80 359L704 662Z" />
<glyph unicode="?" horiz-adv-x="812" d="M298 404Q311 511 351 594T485 770T617 923Q699 1048 688 1199Q681 1277 642 1321T533 1369Q438 1371 373 1304T283 1116L176 1115Q201 1283 300 1382T542 1477Q677 1473 746 1370T799 1110Q783 933 622 763L516 658Q427
564 398 405L298 404ZM219 71Q221 102 241 127T295 154Q326 154 346 131T364 71Q361 40 340 16T287 -9Q252 -10 235 14T219 71Z" />
<glyph unicode="@" horiz-adv-x="1568" d="M1038 -21Q964 -19 917 31T868 168Q747 -25 606 -22Q436 -19 436 247Q436 424 503 612T669 896T889 989Q959 987 1009 958T1105 879L974 310Q965 255 965 215Q960 68 1056 65Q1174 60 1253 196T1365 593Q1386 757 1376
879Q1359 1098 1250 1210T950 1326Q749 1330 583 1202T304 828T171 300Q157 115 197 -40T337 -278T587 -361Q728 -363 873 -284L892 -366Q762 -455 583 -453Q413 -452 294 -363T121 -104T77 272Q92 579 217 855T533 1278T956 1421Q1129 1418 1247 1332T1418 1083T1461
719Q1448 496 1392 326T1246 65T1038 -21ZM535 220Q542 82 635 77Q710 72 779 143T883 325L1007 852Q958 895 894 898Q788 902 708 809T578 532T535 220Z" />
<glyph unicode="A" horiz-adv-x="1099" d="M777 407H250L58 0H-64L639 1456H745L942 0H828L777 407ZM300 514H763L667 1290L300 514Z" />
<glyph unicode="B" horiz-adv-x="1074" d="M62 0L314 1456L665 1455Q835 1451 923 1354T996 1083Q985 966 921 884T751 756Q839 723 884 632T919 418Q903 226 783 113T479 0H62ZM296 699L193 106L479 105Q614 105 702 190T807 417Q820 540 768 616T603 698L296
699ZM314 804L566 802Q695 802 781 877T881 1087Q894 1208 840 1275T662 1347L409 1348L314 804Z" />
<glyph unicode="C" horiz-adv-x="1133" d="M985 454Q939 217 810 96T479 -20Q324 -16 232 89T123 385L121 442Q120 510 129 576L179 888Q222 1165 364 1323T722 1477Q908 1472 1001 1347T1083 1000H968Q976 1189 912 1277T715 1369Q551 1374 441 1249T293 885L242
554L236 472Q230 367 256 276T341 137T487 86Q636 79 730 162T876 453L985 454Z" />
<glyph unicode="D" horiz-adv-x="1142" d="M62 0L314 1456L640 1455Q859 1450 969 1290T1047 873L1004 594Q961 315 804 159T410 0H62ZM409 1348L193 106L400 105Q599 105 727 233T891 594L935 877Q947 963 939 1046Q925 1187 847 1265T637 1347L409 1348Z" />
<glyph unicode="E" horiz-adv-x="997" d="M844 697H296L193 106H824L805 0H62L314 1456H1053L1034 1348H409L314 803H863L844 697Z" />
<glyph unicode="F" horiz-adv-x="984" d="M836 678H293L175 0H61L314 1456H1052L1033 1348H409L311 786H855L836 678Z" />
<glyph unicode="G" horiz-adv-x="1189" d="M960 169Q886 78 769 28T517 -20Q339 -18 238 101T131 426Q129 496 138 566L196 930Q242 1191 381 1336T736 1476Q915 1472 1012 1358T1103 1044L991 1045Q993 1206 926 1285T730 1368Q566 1373 457 1260T309 927L252
565Q245 513 244 458Q241 286 313 188T522 87Q702 83 845 207L912 586H602L622 693H1045L960 169Z" />
<glyph unicode="H" horiz-adv-x="1231" d="M950 0H835L957 697H296L175 0H61L314 1456H428L314 803H975L1088 1456H1203L950 0Z" />
<glyph unicode="I" horiz-adv-x="495" d="M195 0H82L335 1456H448L195 0Z" />
<glyph unicode="J" horiz-adv-x="967" d="M844 1456H959L784 433Q755 224 639 99T354 -22Q193 -17 113 97T52 401H166Q160 345 165 290Q174 194 224 141T363 85Q481 82 563 176T670 432L844 1456Z" />
<glyph unicode="K" horiz-adv-x="1100" d="M466 716L264 517L175 0H61L314 1456H428L294 690L483 888L1013 1456H1163L552 802L940 0H811L466 716Z" />
<glyph unicode="L" horiz-adv-x="932" d="M194 106H777L758 0H62L314 1456H429L194 106Z" />
<glyph unicode="M" horiz-adv-x="1495" d="M460 1456L666 181L1316 1456H1468L1215 0H1101L1211 634L1328 1249L683 0H596L384 1257L285 632L175 0H61L314 1456H460Z" />
<glyph unicode="N" horiz-adv-x="1234" d="M953 0H843L392 1242L176 0H61L314 1456H425L877 212L1093 1456H1206L953 0Z" />
<glyph unicode="O" horiz-adv-x="1182" d="M492 -20Q317 -16 218 102T116 431Q115 501 124 570L172 873Q219 1170 364 1325T725 1476Q842 1473 926 1419T1053 1260T1099 1023Q1100 953 1091 884L1040 565Q1008 371 931 238T743 41T492 -20ZM977 888Q984 940 986
996Q989 1172 921 1267T717 1366Q545 1371 434 1244T286 880L236 555L230 462Q224 289 293 191T499 88Q664 83 773 199T923 544L977 888Z" />
<glyph unicode="P" horiz-adv-x="1081" d="M278 592L175 0H61L314 1456L718 1455Q893 1449 981 1334T1053 1028Q1035 826 910 709T584 591L278 592ZM296 699L589 697Q733 697 828 786T940 1027Q956 1168 896 1255T714 1347L409 1348L296 699Z" />
<glyph unicode="Q" horiz-adv-x="1182" d="M728 41L902 -181L817 -255L619 -3Q551 -19 484 -19Q311 -17 214 103T113 433Q112 502 121 570L168 872Q214 1167 358 1324T720 1476Q837 1473 921 1419T1049 1260T1095 1024Q1096 953 1087 884L1031 534L1011 444Q939
165 728 41ZM973 888Q980 941 982 996Q985 1178 916 1270T712 1366Q540 1371 430 1244T282 880L231 546L226 462Q223 282 293 187T495 88Q661 83 770 200T921 552L973 888Z" />
<glyph unicode="R" horiz-adv-x="1102" d="M609 606H279L174 0H59L312 1456L692 1455Q867 1449 959 1335T1032 1035Q1018 889 935 783T721 629L909 13L908 0H786L609 606ZM297 712L586 710Q722 712 811 803T918 1036Q933 1172 874 1256T689 1347L408 1348L297 712Z" />
<glyph unicode="S" horiz-adv-x="1037" d="M796 366Q809 472 755 546T543 683T307 831Q210 936 223 1091Q236 1259 364 1369T674 1476Q846 1472 942 1349T1022 1040H908Q922 1185 858 1274T666 1368Q533 1370 442 1292T337 1093Q326 994 383 922T585 794T806 665Q926
550 911 368Q896 194 766 85T449 -21T157 105T69 416H181Q167 269 240 179T455 85Q588 83 684 159T796 366Z" />
<glyph unicode="T" horiz-adv-x="1045" d="M1106 1348H705L471 0H356L590 1348H189L209 1456H1125L1106 1348Z" />
<glyph unicode="U" horiz-adv-x="1143" d="M1142 1456L967 430Q937 214 806 94T477 -21Q353 -19 268 37T146 195T124 429L299 1456H412L238 428Q220 268 284 179T485 86Q636 80 732 171T853 428L1027 1456H1142Z" />
<glyph unicode="V" horiz-adv-x="1084" d="M466 182V165L472 182L1040 1456H1169L499 0H392L179 1456H295L466 182Z" />
<glyph unicode="W" horiz-adv-x="1542" d="M362 393L361 189L435 390L854 1456H956L1038 381L1046 185L1116 399L1490 1456H1608L1079 0H971L884 1139L878 1263L831 1135L384 0H275L203 1456H316L362 393Z" />
<glyph unicode="X" horiz-adv-x="1074" d="M567 844L987 1456H1128L622 732L906 0H777L541 631L107 0H-34L488 744L212 1456H339L567 844Z" />
<glyph unicode="Y" horiz-adv-x="1048" d="M526 667L1015 1456H1151L564 541L470 0H356L453 555L188 1456H315L526 667Z" />
<glyph unicode="Z" horiz-adv-x="1047" d="M141 106H864L845 0H-13L5 101L916 1349H240L259 1456H1072L1055 1359L141 106Z" />
<glyph unicode="[" horiz-adv-x="457" d="M577 1560H409L132 -208H302L285 -312H6L314 1664H594L577 1560Z" />
<glyph unicode="\" horiz-adv-x="711" d="M207 1456H310L530 -125H428L207 1456Z" />
<glyph unicode="]" horiz-adv-x="457" d="M186 1664H466L157 -312H-124L-107 -208H63L339 1560H169L186 1664Z" />
<glyph unicode="^" horiz-adv-x="743" d="M486 1291L209 729H98L469 1456H550L667 729H566L486 1291Z" />
<glyph unicode="_" horiz-adv-x="775" d="M624 -103H-103L-84 0H642L624 -103Z" />
<glyph unicode="`" horiz-adv-x="577" d="M525 1255H425L249 1536H383L525 1255Z" />
<glyph unicode="a" horiz-adv-x="945" d="M604 0Q600 38 604 75L613 150Q480 -25 302 -21Q174 -19 108 63T52 276Q63 440 188 535T503 631L687 630L709 782Q720 882 677 939T529 999Q431 1001 361 942T269 784L160 785Q180 925 286 1015T540 1103Q684 1101 758
1015T818 779L727 227Q718 171 718 119L720 12L718 0H604ZM322 85Q415 83 494 133T626 273L671 537L517 538Q366 538 272 471T166 285Q157 192 197 140T322 85Z" />
<glyph unicode="b" horiz-adv-x="976" d="M429 -20Q342 -18 276 23T175 146L141 0H38L305 1536H415L302 931Q417 1106 594 1102Q738 1098 805 994T866 703Q862 615 843 484Q807 231 703 103T429 -20ZM748 594Q759 702 756 767Q748 886 700 940T565 997Q390 1001
285 801L195 263Q246 92 415 86Q673 77 731 461L748 594Z" />
<glyph unicode="c" horiz-adv-x="911" d="M390 82Q607 75 668 334H772Q744 172 640 74T384 -21Q235 -19 154 80T71 361Q69 452 96 622Q134 863 251 985T548 1102Q693 1097 769 996T837 717H730Q738 852 689 923T540 999Q269 1008 208 623L187 463L182 391L181
359Q178 90 390 82Z" />
<glyph unicode="d" horiz-adv-x="979" d="M523 1101Q702 1095 770 936L878 1536H989L722 0H619L645 138Q531 -25 356 -21Q220 -19 150 85T84 381Q85 461 106 604Q143 858 247 982T523 1101ZM203 488Q192 381 195 316Q205 88 384 85Q546 81 657 252L751 815Q701
989 538 996Q268 1005 216 590L203 488Z" />
<glyph unicode="e" horiz-adv-x="919" d="M410 -20Q235 -17 149 116T88 470L100 570Q131 824 253 965T559 1102Q690 1098 763 1017T846 792Q851 707 841 626L828 531H209L199 469Q190 405 194 338Q199 223 258 154T419 82Q500 80 564 112T686 198L738 122Q614
-24 410 -20ZM552 999Q427 1004 342 914T217 635H732L737 665Q744 720 741 778Q736 878 687 936T552 999Z" />
<glyph unicode="f" horiz-adv-x="607" d="M109 0L279 982H135L152 1082H297L316 1214Q340 1385 424 1473T636 1560Q683 1558 747 1540L727 1439Q681 1452 637 1453Q463 1453 425 1197L408 1082H614L596 982H391L220 0H109Z" />
<glyph unicode="g" horiz-adv-x="976" d="M520 1102Q608 1099 672 1055T769 930L805 1082H908L719 -26Q691 -226 583 -331T305 -432Q221 -430 141 -388T11 -277L72 -199Q166 -325 303 -329Q431 -333 508 -257T608 -32L640 134Q523 -25 353 -21Q218 -19 147 84T82
381Q83 463 104 605Q141 857 245 982T520 1102ZM199 488Q188 380 192 317Q202 88 381 85Q549 81 655 256L747 811Q699 989 536 996Q274 1005 215 612L199 488Z" />
<glyph unicode="h" horiz-adv-x="965" d="M300 912Q434 1105 604 1102Q814 1098 833 840L835 795L829 704L711 0H602L719 706L724 771Q731 994 570 998Q480 1000 394 926T277 752L149 0H38L305 1536H416L300 912Z" />
<glyph unicode="i" horiz-adv-x="428" d="M161 0H50L238 1082H349L161 0ZM276 1394Q281 1460 353 1477Q427 1464 421 1394Q417 1330 344 1312Q272 1325 276 1394Z" />
<glyph unicode="j" horiz-adv-x="433" d="M345 1082L139 -129Q118 -285 46 -364T-141 -440Q-178 -439 -234 -419L-221 -318Q-178 -332 -147 -334Q-8 -337 27 -135L234 1082H345ZM347 1477Q378 1477 397 1455T415 1394Q413 1363 392 1338T338 1312Q304 1312 287
1336T272 1394T296 1452T347 1477Z" />
<glyph unicode="k" horiz-adv-x="871" d="M356 539L221 410L150 0H38L305 1536H416L248 569L348 675L745 1082H891L437 619L730 0H607L356 539Z" />
<glyph unicode="l" horiz-adv-x="428" d="M161 0H50L317 1536H428L161 0Z" />
<glyph unicode="m" horiz-adv-x="1524" d="M328 1082L295 920Q420 1106 600 1102Q695 1100 756 1049T833 903Q968 1105 1157 1102Q1275 1100 1336 1021T1397 797L1392 705L1274 0H1163L1281 707Q1286 755 1285 807Q1283 897 1242 947T1123 998Q1019 1000 936 916T830
704L709 0H598L717 716Q722 764 721 814L719 838Q700 993 558 998Q464 1000 384 929T274 754L145 0H34L222 1082H328Z" />
<glyph unicode="n" horiz-adv-x="966" d="M332 1082L297 910Q430 1106 604 1103Q808 1099 832 853L835 795L829 704L711 0H602L719 706L724 771Q731 994 569 998Q480 1000 394 926T277 752L149 0H38L226 1082H332Z" />
<glyph unicode="o" horiz-adv-x="985" d="M560 1103Q707 1099 789 996T874 713Q876 622 854 479Q818 241 698 108T396 -21Q261 -17 180 72T83 328L81 368Q78 449 101 603T186 871T342 1045T560 1103ZM192 398Q189 250 243 168T404 82Q534 77 622 176T742 470L759
597L764 682Q767 827 713 911T552 999Q418 1004 327 892T210 582L194 455L192 398Z" />
<glyph unicode="p" horiz-adv-x="976" d="M429 -20Q346 -18 279 19T174 131L76 -416H-34L226 1082L328 1083L299 935Q419 1106 593 1102Q847 1098 864 772L865 703Q860 602 840 471Q802 221 698 98T429 -20ZM747 593Q758 703 754 767Q739 994 560 997Q476 999
407 952T288 817L192 245Q246 88 408 82Q666 73 729 454L747 593Z" />
<glyph unicode="q" horiz-adv-x="983" d="M526 1102Q703 1096 773 941L807 1082H911L651 -416H539L641 126Q524 -24 358 -20Q221 -18 150 84T85 380Q86 455 104 590Q138 848 244 977T526 1102ZM197 315Q202 200 251 142T387 82Q547 78 655 241L753 826Q698 991
542 999Q281 1008 221 619Q191 422 197 315Z" />
<glyph unicode="r" horiz-adv-x="610" d="M625 980Q580 988 557 988Q465 990 385 922T276 748L149 0H38L226 1082H335L300 920Q411 1112 571 1105Q594 1104 641 1090L625 980Z" />
<glyph unicode="s" horiz-adv-x="897" d="M615 274Q630 383 483 468L426 499L326 555Q162 652 172 806Q179 933 278 1018T520 1102Q662 1098 740 1011T808 785H698Q704 879 654 937T514 997Q423 999 357 947T280 810Q268 711 390 641L565 544Q736 442 726 280Q717
144 614 60T362 -20Q218 -18 131 68T53 296L164 295Q160 195 213 140T367 83Q466 83 535 135T615 274Z" />
<glyph unicode="t" horiz-adv-x="586" d="M439 1358L391 1082H570L553 982H374L254 262L250 209Q246 92 328 90L406 97L399 -3Q351 -20 299 -18Q225 -17 186 32T143 170Q141 219 145 264L263 982H101L118 1082H280L329 1358H439Z" />
<glyph unicode="u" horiz-adv-x="966" d="M631 128Q518 -25 336 -21Q224 -19 163 61T102 297L107 389L223 1082H333L217 386Q212 343 213 292Q213 198 251 143T360 85Q458 81 541 139T651 289L787 1082H898L711 0H603L631 128Z" />
<glyph unicode="v" horiz-adv-x="853" d="M354 179L753 1082H870L373 0H285L126 1082H235L354 179Z" />
<glyph unicode="w" horiz-adv-x="1306" d="M302 246L298 185L322 251L680 1082H773L843 253V181L869 255L1193 1082H1310L864 0H772L695 860V887L687 859L314 0H219L153 1082H256L302 246Z" />
<glyph unicode="x" horiz-adv-x="864" d="M429 647L726 1082H862L476 545L698 0H576L407 452L94 0H-41L358 557L146 1082H268L429 647Z" />
<glyph unicode="y" horiz-adv-x="841" d="M349 188L754 1082H876L291 -174Q230 -318 160 -379T2 -440Q-28 -440 -84 -424L-72 -323L-22 -331Q106 -337 186 -177L272 15L128 1082H245L349 188Z" />
<glyph unicode="z" horiz-adv-x="864" d="M137 103H701L682 0H-15L2 96L681 977H169L187 1082H837L820 985L137 103Z" />
<glyph unicode="{" horiz-adv-x="602" d="M390 -401Q292 -359 237 -278T173 -82Q167 -12 175 60L206 286Q211 331 210 375Q203 531 66 541L78 647Q272 657 307 898L339 1132Q365 1315 451 1430T690 1599L705 1517Q493 1432 451 1132L417 890Q383 676 214 592Q263
559 290 500T320 371L317 285L283 25L280 -50Q280 -252 421 -320L390 -401Z" />
<glyph unicode="|" horiz-adv-x="448" d="M136 -270H35L305 1456H406L136 -270Z" />
<glyph unicode="}" horiz-adv-x="602" d="M-115 -321Q98 -234 140 59L172 293Q204 515 382 599Q277 662 270 819L271 887L308 1167L312 1244Q312 1449 171 1516L202 1595Q298 1555 354 1472T418 1274Q423 1202 414 1132L384 904Q379 859 381 816Q385 662 524 651L512
545Q318 535 282 293L250 53Q201 -299 -95 -405L-115 -321Z" />
<glyph unicode="~" horiz-adv-x="1190" d="M1064 766Q1048 612 973 516T784 421Q682 424 592 520L514 611Q456 678 391 680Q245 683 208 450L111 449Q130 605 206 698T396 789Q501 786 598 679L666 598Q726 530 790 530Q933 527 977 765L1064 766Z" />
<glyph unicode="&#xa0;" horiz-adv-x="456" />
<glyph unicode="&#xa1;" horiz-adv-x="424" d="M175 689H277L102 -359H-13L175 689ZM351 1021Q349 990 328 965T273 938Q242 938 223 961T205 1021Q207 1052 228 1077T282 1103Q315 1103 334 1079T351 1021Z" />
<glyph unicode="&#xa2;" horiz-adv-x="958" d="M411 82Q509 79 582 145T688 334L792 335Q766 194 675 101T443 -17L400 -245H289L334 -13Q223 14 163 111T99 359Q94 550 142 714T288 977T519 1098L561 1318H672L629 1096Q747 1070 807 967T858 717H752Q757 845
706 920T560 999Q460 1002 384 938T262 743T207 432Q200 267 251 177T411 82Z" />
<glyph unicode="&#xa3;" horiz-adv-x="1005" d="M364 644L326 371Q302 202 222 104L832 106L813 0H-7L12 105L85 104Q176 147 205 323L250 644H101L120 751H266L305 1033Q334 1243 443 1362T706 1476Q845 1473 919 1366T977 1088H864Q875 1223 829 1295T689 1370Q583
1373 512 1284T417 1023L380 751H658L639 644H364Z" />
<glyph unicode="&#xa4;" horiz-adv-x="1447" d="M1023 131Q831 -24 620 -20Q519 -18 427 20T265 132L85 -26L12 68L194 223Q115 405 141 601Q172 831 337 1008L205 1181L299 1265L429 1096Q619 1238 819 1234Q916 1232 1005 1197T1164 1092L1361 1265L1434 1169L1238
1000Q1324 814 1296 614Q1269 398 1112 224L1241 56L1147 -28L1023 131ZM252 599Q235 470 278 352T413 164T627 91Q778 87 913 177T1125 424T1187 738Q1176 845 1125 933T993 1069T811 1121Q678 1125 556 1055T352 861T252 599Z" />
<glyph unicode="&#xa5;" horiz-adv-x="912" d="M474 751L884 1456H1017L563 707H810L794 616H508L473 414H759L743 324H458L401 0H287L344 324H60L76 414H359L395 616H111L127 707H379L188 1456H310L474 751Z" />
<glyph unicode="&#xa6;" horiz-adv-x="441" d="M2 -270L136 502H256L121 -270H2ZM289 698H170L302 1456H421L289 698Z" />
<glyph unicode="&#xa7;" horiz-adv-x="1061" d="M917 439Q907 332 843 263T681 155Q799 55 783 -130Q767 -300 647 -400T348 -496Q168 -492 74 -376T-2 -64L108 -62Q92 -208 159 -298T354 -391Q474 -395 564 -325T671 -132Q681 -41 632 23T440 141T229 250T130
375T107 543Q122 740 335 829Q248 908 240 1033Q229 1168 286 1269T448 1425T677 1476Q849 1472 936 1354T1004 1045H894Q903 1137 881 1210T804 1327T670 1372Q541 1374 454 1304T353 1115Q341 1020 391 953T594 829T816 709Q933 606 917 439ZM433 771Q342 753
286 696T218 545Q198 383 362 302L410 280L575 214Q673 234 734 291T806 436Q827 598 641 686L592 708L433 771Z" />
<glyph unicode="&#xa8;" horiz-adv-x="865" d="M256 1395Q258 1429 282 1453T341 1478T398 1455T418 1395Q416 1361 392 1338T333 1314Q298 1314 276 1337T256 1395ZM681 1394Q683 1428 707 1452T766 1477T823 1454T843 1394Q841 1360 817 1337T758 1313Q723 1313
701 1336T681 1394Z" />
<glyph unicode="&#xa9;" horiz-adv-x="1598" d="M1100 606Q1080 451 991 369T762 291Q623 294 547 402T485 679L493 758Q512 946 615 1056T868 1165Q1005 1161 1076 1078T1137 851H1039Q1048 956 1004 1013T864 1073Q757 1075 684 993T595 768L585 678Q572 548
620 468T766 385Q965 378 1006 605L1100 606ZM219 563Q233 422 301 308T478 130T717 66Q912 62 1086 179T1355 495T1430 895Q1414 1037 1346 1149T1171 1323T932 1388Q787 1391 651 1326T409 1138T253 863T219 563ZM135 722Q157 919 270 1096T560 1377T933 1476Q1112
1474 1254 1376T1466 1102T1513 735Q1488 529 1371 351T1079 74T716 -21Q532 -17 392 81T182 356T135 722Z" />
<glyph unicode="&#xaa;" horiz-adv-x="788" d="M569 703V749L571 795Q485 690 383 690Q296 690 247 748T201 901Q206 1012 287 1076T503 1141L613 1140L622 1203L625 1262Q621 1375 529 1378Q395 1384 363 1237L262 1244Q278 1350 351 1414T534 1477Q635 1475
685 1398T723 1200L670 858L665 795L666 704L569 703ZM406 785Q486 785 575 885L604 1057L505 1058Q414 1056 362 1015T303 905Q298 851 323 818T406 785Z" />
<glyph unicode="&#xab;" horiz-adv-x="813" d="M213 786L366 404H281L103 783L105 803L408 1182H509L213 786ZM469 530L622 148H537L359 527L361 547L664 926H765L469 530Z" />
<glyph unicode="&#xac;" horiz-adv-x="962" d="M750 385H638L688 668H131L150 777H818L750 385Z" />
<glyph unicode="&#xad;" horiz-adv-x="523" d="M449 590H54L72 693H467L449 590Z" />
<glyph unicode="&#xae;" horiz-adv-x="1603" d="M130 722Q155 929 270 1104T559 1379T928 1476Q1105 1474 1247 1377T1461 1103T1510 735Q1492 584 1421 443T1238 195T990 32T711 -21Q527 -17 387 81T177 356T130 722ZM214 563Q228 422 296 308T474 130T712 66Q857
63 991 127T1231 312T1388 587T1425 896Q1411 1035 1343 1148T1167 1323T927 1388Q733 1392 559 1277T289 963T214 563ZM655 666L600 321H502L634 1160L878 1159Q1011 1154 1079 1093T1141 919Q1131 786 976 711Q1058 670 1067 570L1066 509Q1056 433 1057 400L1059
337L1057 321H959Q954 357 956 393L962 465L967 509Q974 584 947 622T842 665L655 666ZM669 758L839 757Q921 759 979 802T1047 917Q1067 1067 877 1068L718 1069L669 758Z" />
<glyph unicode="&#xaf;" horiz-adv-x="770" d="M761 1342H246L262 1440H777L761 1342Z" />
<glyph unicode="&#xb0;" horiz-adv-x="761" d="M249 1217Q253 1323 331 1401T511 1477Q603 1475 664 1404T722 1235Q718 1130 642 1053T464 978Q368 980 307 1050T249 1217ZM339 1219Q333 1157 370 1114T466 1070Q531 1070 579 1118T633 1233Q639 1296 603 1340T508
1385Q442 1385 394 1336T339 1219Z" />
<glyph unicode="&#xb1;" horiz-adv-x="934" d="M559 830H874L857 726H543L475 289H373L442 726H107L124 830H457L526 1267H628L559 830ZM713 0H29L46 103H729L713 0Z" />
<glyph unicode="&#xb2;" horiz-adv-x="654" d="M578 665H106L120 746L398 1025L445 1075Q531 1169 540 1247Q547 1307 521 1342T442 1378Q314 1378 279 1217L184 1216Q200 1331 271 1400T443 1467Q536 1467 591 1406T641 1247Q634 1137 513 1013L451 950L247 754H594L578
665Z" />
<glyph unicode="&#xb3;" horiz-adv-x="654" d="M323 1106H387Q456 1108 503 1148T555 1249Q561 1305 533 1341T447 1377Q385 1377 348 1340T295 1247H198Q213 1348 282 1408T447 1467Q541 1467 599 1408T651 1252Q642 1132 506 1064Q613 1020 606 888Q600 784
527 718T345 654Q243 656 184 719T131 885H227Q224 824 254 784T350 743Q418 743 462 785T513 891Q525 1022 372 1024L315 1025L323 1106Z" />
<glyph unicode="&#xb4;" horiz-adv-x="569" d="M447 1536H598L330 1255H217L447 1536Z" />
<glyph unicode="&#xb5;" horiz-adv-x="981" d="M343 1082L238 449Q227 367 229 301Q234 85 380 82Q475 78 555 137T662 298L796 1082H907L719 0H619L645 144Q540 -25 377 -21Q234 -17 176 102L82 -416H-27L233 1082H343Z" />
<glyph unicode="&#xb6;" horiz-adv-x="846" d="M475 0L566 520L487 521Q318 528 230 655T163 980Q184 1191 313 1324T638 1457L839 1456L586 0H475Z" />
<glyph unicode="&#xb7;" horiz-adv-x="463" d="M169 717Q171 753 194 778T248 803Q282 803 301 779T319 717Q317 685 296 660T239 634T186 658T169 717Z" />
<glyph unicode="&#xb8;" horiz-adv-x="456" d="M121 0L100 -66Q212 -92 207 -228Q202 -324 130 -378T-65 -438V-357Q11 -354 59 -321T115 -230Q125 -155 43 -137L-6 -128L36 0H121Z" />
<glyph unicode="&#xb9;" horiz-adv-x="654" d="M418 665H316L431 1321L232 1253L250 1351L532 1454L548 1455L418 665Z" />
<glyph unicode="&#xba;" horiz-adv-x="802" d="M530 1477Q645 1474 706 1378T755 1132L745 1033Q725 876 642 781T434 689Q320 692 260 784T207 1020L208 1033L215 1110Q230 1277 317 1379T530 1477ZM309 1031L308 952Q312 875 346 831T441 785Q521 782 576 850T645
1043L655 1133L656 1213Q653 1285 619 1331T523 1380Q444 1382 391 1318T321 1139L309 1031Z" />
<glyph unicode="&#xbb;" horiz-adv-x="809" d="M260 944L438 562L435 541L132 161H30L325 557L173 944H260ZM524 944L702 562L699 541L396 161H294L589 557L437 944H524Z" />
<glyph unicode="&#xbc;" horiz-adv-x="1260" d="M404 664H302L417 1320L218 1252L236 1350L518 1453L534 1454L404 664ZM285 129L222 183L996 1315L1057 1264L285 129ZM1009 276H1110L1094 186H993L960 0H864L897 186H578L584 254L993 789H1098L1009 276ZM693
276H912L983 653L952 607L693 276Z" />
<glyph unicode="&#xbd;" horiz-adv-x="1317" d="M249 129L186 183L960 1315L1021 1264L249 129ZM393 664H291L406 1320L207 1252L225 1350L507 1453L523 1454L393 664ZM1094 0H622L636 81L914 360L961 410Q1047 504 1056 582Q1063 642 1037 677T958 713Q830 713
795 552L700 551Q716 666 787 735T959 802Q1052 802 1107 741T1157 582Q1150 472 1029 348L967 285L763 89H1110L1094 0Z" />
<glyph unicode="&#xbe;" horiz-adv-x="1345" d="M400 129L337 183L1111 1315L1172 1264L400 129ZM1098 276H1199L1183 186H1082L1049 0H953L986 186H667L673 254L1082 789H1187L1098 276ZM782 276H1001L1072 653L1041 607L782 276ZM362 1106H426Q495 1108 542
1148T594 1249Q600 1305 572 1341T486 1377Q424 1377 387 1340T334 1247H237Q252 1348 321 1408T486 1467Q580 1467 638 1408T690 1252Q681 1132 545 1064Q652 1020 645 888Q639 784 566 718T384 654Q282 656 223 719T170 885H266Q263 824 293 784T389 743Q457
743 501 785T552 891Q564 1022 411 1024L354 1025L362 1106Z" />
<glyph unicode="&#xbf;" horiz-adv-x="819" d="M491 689Q477 577 438 501T322 349L247 269Q87 94 105 -108Q112 -185 154 -230T267 -276Q358 -279 424 -211T513 -21H621Q595 -194 498 -291T258 -384Q120 -380 49 -279T-7 -18Q4 91 64 197T264 434Q312 479 341
535T388 687L491 689ZM569 1021Q567 990 547 965T493 938Q458 937 440 963T424 1021Q427 1052 448 1076T501 1102Q534 1102 552 1079T569 1021Z" />
<glyph unicode="&#xc0;" horiz-adv-x="1099" d="M777 407H250L58 0H-64L639 1456H745L942 0H828L777 407ZM300 514H763L667 1290L300 514ZM785 1570H685L509 1851H643L785 1570Z" />
<glyph unicode="&#xc1;" horiz-adv-x="1099" d="M777 407H250L58 0H-64L639 1456H745L942 0H828L777 407ZM300 514H763L667 1290L300 514ZM871 1851H1022L754 1570H641L871 1851Z" />
<glyph unicode="&#xc2;" horiz-adv-x="1099" d="M777 407H250L58 0H-64L639 1456H745L942 0H828L777 407ZM300 514H763L667 1290L300 514ZM951 1584L950 1572L852 1573L752 1753L585 1574L487 1573L488 1586L721 1841H789L951 1584Z" />
<glyph unicode="&#xc3;" horiz-adv-x="1099" d="M777 407H250L58 0H-64L639 1456H745L942 0H828L777 407ZM300 514H763L667 1290L300 514ZM1034 1810Q1021 1710 974 1652T852 1593Q803 1593 741 1649T631 1706Q565 1703 535 1621L524 1588L443 1591Q456 1689 504
1748T626 1806Q661 1806 687 1788T738 1749T789 1711T848 1694Q927 1694 957 1815L1034 1810Z" />
<glyph unicode="&#xc4;" horiz-adv-x="1099" d="M777 407H250L58 0H-64L639 1456H745L942 0H828L777 407ZM300 514H763L667 1290L300 514ZM446 1710Q448 1744 472 1768T531 1793T588 1770T608 1710Q606 1676 582 1653T523 1629Q488 1629 466 1652T446 1710ZM871
1709Q873 1743 897 1767T956 1792T1013 1769T1033 1709Q1031 1675 1007 1652T948 1628Q913 1628 891 1651T871 1709Z" />
<glyph unicode="&#xc5;" horiz-adv-x="1099" d="M777 407H250L58 0H-64L639 1456H745L942 0H828L777 407ZM300 514H763L667 1290L300 514ZM555 1708Q557 1789 615 1849T756 1909Q830 1909 881 1855T931 1724Q929 1644 871 1586T730 1528Q655 1528 604 1579T555
1708ZM632 1710Q628 1662 655 1632T727 1601Q774 1601 811 1636T855 1722Q859 1771 832 1803T759 1835Q711 1835 674 1798T632 1710Z" />
<glyph unicode="&#xc6;" horiz-adv-x="1576" d="M1411 0H732L786 388H314L61 0H-81L890 1456H1614L1595 1352H1030L954 810H1435L1417 706H941L856 103H1429L1411 0ZM387 503H802L915 1312L387 503Z" />
<glyph unicode="&#xc7;" horiz-adv-x="1133" d="M985 454Q939 217 810 96T479 -20Q324 -16 232 89T123 385L121 442Q120 510 129 576L179 888Q222 1165 364 1323T722 1477Q908 1472 1001 1347T1083 1000H968Q976 1189 912 1277T715 1369Q551 1374 441 1249T293
885L242 554L236 472Q230 367 256 276T341 137T487 86Q636 79 730 162T876 453L985 454ZM510 -9L489 -75Q601 -101 596 -237Q591 -333 519 -387T324 -447V-366Q400 -363 448 -330T504 -239Q514 -164 432 -146L383 -137L425 -9H510Z" />
<glyph unicode="&#xc8;" horiz-adv-x="997" d="M844 697H296L193 106H824L805 0H62L314 1456H1053L1034 1348H409L314 803H863L844 697ZM763 1576H663L487 1857H621L763 1576Z" />
<glyph unicode="&#xc9;" horiz-adv-x="997" d="M844 697H296L193 106H824L805 0H62L314 1456H1053L1034 1348H409L314 803H863L844 697ZM849 1857H1000L732 1576H619L849 1857Z" />
<glyph unicode="&#xca;" horiz-adv-x="997" d="M844 697H296L193 106H824L805 0H62L314 1456H1053L1034 1348H409L314 803H863L844 697ZM929 1590L928 1578L830 1579L730 1759L563 1580L465 1579L466 1592L699 1847H767L929 1590Z" />
<glyph unicode="&#xcb;" horiz-adv-x="997" d="M844 697H296L193 106H824L805 0H62L314 1456H1053L1034 1348H409L314 803H863L844 697ZM424 1716Q426 1750 450 1774T509 1799T566 1776T586 1716Q584 1682 560 1659T501 1635Q466 1635 444 1658T424 1716ZM849
1715Q851 1749 875 1773T934 1798T991 1775T1011 1715Q1009 1681 985 1658T926 1634Q891 1634 869 1657T849 1715Z" />
<glyph unicode="&#xcc;" horiz-adv-x="495" d="M195 0H82L335 1456H448L195 0ZM482 1576H382L206 1857H340L482 1576Z" />
<glyph unicode="&#xcd;" horiz-adv-x="495" d="M195 0H82L335 1456H448L195 0ZM567 1857H718L450 1576H337L567 1857Z" />
<glyph unicode="&#xce;" horiz-adv-x="495" d="M195 0H82L335 1456H448L195 0ZM648 1590L647 1578L549 1579L449 1759L282 1580L184 1579L185 1592L418 1847H486L648 1590Z" />
<glyph unicode="&#xcf;" horiz-adv-x="495" d="M195 0H82L335 1456H448L195 0ZM143 1716Q145 1750 169 1774T228 1799T285 1776T305 1716Q303 1682 279 1659T220 1635Q185 1635 163 1658T143 1716ZM568 1715Q570 1749 594 1773T653 1798T710 1775T730 1715Q728
1681 704 1658T645 1634Q610 1634 588 1657T568 1715Z" />
<glyph unicode="&#xd0;" horiz-adv-x="1172" d="M92 0L211 689H56L75 793H229L344 1456L670 1455Q889 1450 999 1290T1077 873L1034 594Q991 315 834 159T440 0H92ZM562 689H324L223 106L430 105Q629 105 757 233T921 594L965 877Q977 963 969 1046Q955 1187 877
1265T667 1347L439 1348L342 793H580L562 689Z" />
<glyph unicode="&#xd1;" horiz-adv-x="1234" d="M953 0H843L392 1242L176 0H61L314 1456H425L877 212L1093 1456H1206L953 0ZM1098 1810Q1085 1710 1038 1652T916 1593Q867 1593 805 1649T695 1706Q629 1703 599 1621L588 1588L507 1591Q520 1689 568 1748T690
1806Q725 1806 751 1788T802 1749T853 1711T912 1694Q991 1694 1021 1815L1098 1810Z" />
<glyph unicode="&#xd2;" horiz-adv-x="1182" d="M492 -20Q317 -16 218 102T116 431Q115 501 124 570L172 873Q219 1170 364 1325T725 1476Q842 1473 926 1419T1053 1260T1099 1023Q1100 953 1091 884L1040 565Q1008 371 931 238T743 41T492 -20ZM977 888Q984 940
986 996Q989 1172 921 1267T717 1366Q545 1371 434 1244T286 880L236 555L230 462Q224 289 293 191T499 88Q664 83 773 199T923 544L977 888ZM825 1581H725L549 1862H683L825 1581Z" />
<glyph unicode="&#xd3;" horiz-adv-x="1182" d="M492 -20Q317 -16 218 102T116 431Q115 501 124 570L172 873Q219 1170 364 1325T725 1476Q842 1473 926 1419T1053 1260T1099 1023Q1100 953 1091 884L1040 565Q1008 371 931 238T743 41T492 -20ZM977 888Q984 940
986 996Q989 1172 921 1267T717 1366Q545 1371 434 1244T286 880L236 555L230 462Q224 289 293 191T499 88Q664 83 773 199T923 544L977 888ZM911 1862H1062L794 1581H681L911 1862Z" />
<glyph unicode="&#xd4;" horiz-adv-x="1182" d="M492 -20Q317 -16 218 102T116 431Q115 501 124 570L172 873Q219 1170 364 1325T725 1476Q842 1473 926 1419T1053 1260T1099 1023Q1100 953 1091 884L1040 565Q1008 371 931 238T743 41T492 -20ZM977 888Q984 940
986 996Q989 1172 921 1267T717 1366Q545 1371 434 1244T286 880L236 555L230 462Q224 289 293 191T499 88Q664 83 773 199T923 544L977 888ZM991 1595L990 1583L892 1584L792 1764L625 1585L527 1584L528 1597L761 1852H829L991 1595Z" />
<glyph unicode="&#xd5;" horiz-adv-x="1182" d="M492 -20Q317 -16 218 102T116 431Q115 501 124 570L172 873Q219 1170 364 1325T725 1476Q842 1473 926 1419T1053 1260T1099 1023Q1100 953 1091 884L1040 565Q1008 371 931 238T743 41T492 -20ZM977 888Q984 940
986 996Q989 1172 921 1267T717 1366Q545 1371 434 1244T286 880L236 555L230 462Q224 289 293 191T499 88Q664 83 773 199T923 544L977 888ZM1074 1821Q1061 1721 1014 1663T892 1604Q843 1604 781 1660T671 1717Q605 1714 575 1632L564 1599L483 1602Q496 1700
544 1759T666 1817Q701 1817 727 1799T778 1760T829 1722T888 1705Q967 1705 997 1826L1074 1821Z" />
<glyph unicode="&#xd6;" horiz-adv-x="1182" d="M492 -20Q317 -16 218 102T116 431Q115 501 124 570L172 873Q219 1170 364 1325T725 1476Q842 1473 926 1419T1053 1260T1099 1023Q1100 953 1091 884L1040 565Q1008 371 931 238T743 41T492 -20ZM977 888Q984 940
986 996Q989 1172 921 1267T717 1366Q545 1371 434 1244T286 880L236 555L230 462Q224 289 293 191T499 88Q664 83 773 199T923 544L977 888ZM486 1721Q488 1755 512 1779T571 1804T628 1781T648 1721Q646 1687 622 1664T563 1640Q528 1640 506 1663T486 1721ZM911
1720Q913 1754 937 1778T996 1803T1053 1780T1073 1720Q1071 1686 1047 1663T988 1639Q953 1639 931 1662T911 1720Z" />
<glyph unicode="&#xd7;" horiz-adv-x="926" d="M22 191L376 554L156 904L237 981L453 635L791 981L852 892L511 542L739 179L658 103L433 461L84 103L22 191Z" />
<glyph unicode="&#xd8;" horiz-adv-x="1182" d="M490 -21Q345 -17 241 75L134 -83H33L190 136Q106 301 118 519Q124 643 158 833T266 1162Q434 1482 726 1476Q902 1472 1009 1339L1126 1504H1226L1056 1266Q1094 1154 1099 1037Q1103 914 1085 798L1066 675Q1014
343 864 159T490 -21ZM227 445Q227 333 259 243L940 1236Q868 1361 719 1367Q542 1372 425 1219T265 794L240 630Q226 532 227 445ZM990 979Q993 1064 979 1149L309 171Q382 92 498 88Q667 83 782 223T944 621Q986 858 990 979Z" />
<glyph unicode="&#xd9;" horiz-adv-x="1143" d="M1142 1456L967 430Q937 214 806 94T477 -21Q353 -19 268 37T146 195T124 429L299 1456H412L238 428Q220 268 284 179T485 86Q636 80 732 171T853 428L1027 1456H1142ZM810 1570H710L534 1851H668L810 1570Z" />
<glyph unicode="&#xda;" horiz-adv-x="1143" d="M1142 1456L967 430Q937 214 806 94T477 -21Q353 -19 268 37T146 195T124 429L299 1456H412L238 428Q220 268 284 179T485 86Q636 80 732 171T853 428L1027 1456H1142ZM896 1851H1047L779 1570H666L896 1851Z" />
<glyph unicode="&#xdb;" horiz-adv-x="1143" d="M1142 1456L967 430Q937 214 806 94T477 -21Q353 -19 268 37T146 195T124 429L299 1456H412L238 428Q220 268 284 179T485 86Q636 80 732 171T853 428L1027 1456H1142ZM976 1584L975 1572L877 1573L777 1753L610
1574L512 1573L513 1586L746 1841H814L976 1584Z" />
<glyph unicode="&#xdc;" horiz-adv-x="1143" d="M1142 1456L967 430Q937 214 806 94T477 -21Q353 -19 268 37T146 195T124 429L299 1456H412L238 428Q220 268 284 179T485 86Q636 80 732 171T853 428L1027 1456H1142ZM471 1710Q473 1744 497 1768T556 1793T613
1770T633 1710Q631 1676 607 1653T548 1629Q513 1629 491 1652T471 1710ZM896 1709Q898 1743 922 1767T981 1792T1038 1769T1058 1709Q1056 1675 1032 1652T973 1628Q938 1628 916 1651T896 1709Z" />
<glyph unicode="&#xdd;" horiz-adv-x="1048" d="M526 667L1015 1456H1151L564 541L470 0H356L453 555L188 1456H315L526 667ZM842 1845H993L725 1564H612L842 1845Z" />
<glyph unicode="&#xde;" horiz-adv-x="1037" d="M424 1456L371 1153L619 1152Q781 1146 868 1035T940 745Q924 558 800 440T491 322L228 323L171 0H60L313 1456H424ZM353 1049L245 427L495 425Q630 427 722 516T830 745Q846 872 789 957T616 1048L353 1049Z" />
<glyph unicode="&#xdf;" horiz-adv-x="1029" d="M146 0H35L227 1127Q256 1331 349 1440T586 1545Q705 1541 773 1458T830 1244Q825 1179 789 1102L703 931Q676 875 668 815L666 796Q660 703 764 571T869 341L868 317Q858 167 757 71T516 -21Q361 -19 269 62L311
164Q349 126 401 104T508 81Q605 79 675 145T759 315Q766 372 743 429T661 560T578 694T559 816Q564 864 581 908T640 1028T699 1147T721 1238Q731 1322 694 1381T586 1444Q488 1449 424 1370T337 1128L146 0Z" />
<glyph unicode="&#xe0;" horiz-adv-x="945" d="M604 0Q600 38 604 75L613 150Q480 -25 302 -21Q174 -19 108 63T52 276Q63 440 188 535T503 631L687 630L709 782Q720 882 677 939T529 999Q431 1001 361 942T269 784L160 785Q180 925 286 1015T540 1103Q684 1101
758 1015T818 779L727 227Q718 171 718 119L720 12L718 0H604ZM322 85Q415 83 494 133T626 273L671 537L517 538Q366 538 272 471T166 285Q157 192 197 140T322 85ZM675 1255H575L399 1536H533L675 1255Z" />
<glyph unicode="&#xe1;" horiz-adv-x="945" d="M604 0Q600 38 604 75L613 150Q480 -25 302 -21Q174 -19 108 63T52 276Q63 440 188 535T503 631L687 630L709 782Q720 882 677 939T529 999Q431 1001 361 942T269 784L160 785Q180 925 286 1015T540 1103Q684 1101
758 1015T818 779L727 227Q718 171 718 119L720 12L718 0H604ZM322 85Q415 83 494 133T626 273L671 537L517 538Q366 538 272 471T166 285Q157 192 197 140T322 85ZM761 1536H912L644 1255H531L761 1536Z" />
<glyph unicode="&#xe2;" horiz-adv-x="945" d="M604 0Q600 38 604 75L613 150Q480 -25 302 -21Q174 -19 108 63T52 276Q63 440 188 535T503 631L687 630L709 782Q720 882 677 939T529 999Q431 1001 361 942T269 784L160 785Q180 925 286 1015T540 1103Q684 1101
758 1015T818 779L727 227Q718 171 718 119L720 12L718 0H604ZM322 85Q415 83 494 133T626 273L671 537L517 538Q366 538 272 471T166 285Q157 192 197 140T322 85ZM841 1269L840 1257L742 1258L642 1438L475 1259L377 1258L378 1271L611 1526H679L841 1269Z" />
<glyph unicode="&#xe3;" horiz-adv-x="945" d="M604 0Q600 38 604 75L613 150Q480 -25 302 -21Q174 -19 108 63T52 276Q63 440 188 535T503 631L687 630L709 782Q720 882 677 939T529 999Q431 1001 361 942T269 784L160 785Q180 925 286 1015T540 1103Q684 1101
758 1015T818 779L727 227Q718 171 718 119L720 12L718 0H604ZM322 85Q415 83 494 133T626 273L671 537L517 538Q366 538 272 471T166 285Q157 192 197 140T322 85ZM924 1495Q911 1395 864 1337T742 1278Q693 1278 631 1334T521 1391Q455 1388 425 1306L414 1273L333
1276Q346 1374 394 1433T516 1491Q551 1491 577 1473T628 1434T679 1396T738 1379Q817 1379 847 1500L924 1495Z" />
<glyph unicode="&#xe4;" horiz-adv-x="945" d="M604 0Q600 38 604 75L613 150Q480 -25 302 -21Q174 -19 108 63T52 276Q63 440 188 535T503 631L687 630L709 782Q720 882 677 939T529 999Q431 1001 361 942T269 784L160 785Q180 925 286 1015T540 1103Q684 1101
758 1015T818 779L727 227Q718 171 718 119L720 12L718 0H604ZM322 85Q415 83 494 133T626 273L671 537L517 538Q366 538 272 471T166 285Q157 192 197 140T322 85ZM336 1395Q338 1429 362 1453T421 1478T478 1455T498 1395Q496 1361 472 1338T413 1314Q378 1314
356 1337T336 1395ZM761 1394Q763 1428 787 1452T846 1477T903 1454T923 1394Q921 1360 897 1337T838 1313Q803 1313 781 1336T761 1394Z" />
<glyph unicode="&#xe5;" horiz-adv-x="945" d="M604 0Q600 38 604 75L613 150Q480 -25 302 -21Q174 -19 108 63T52 276Q63 440 188 535T503 631L687 630L709 782Q720 882 677 939T529 999Q431 1001 361 942T269 784L160 785Q180 925 286 1015T540 1103Q684 1101
758 1015T818 779L727 227Q718 171 718 119L720 12L718 0H604ZM322 85Q415 83 494 133T626 273L671 537L517 538Q366 538 272 471T166 285Q157 192 197 140T322 85ZM445 1393Q447 1474 505 1534T646 1594Q720 1594 771 1540T821 1409Q819 1329 761 1271T620 1213Q545
1213 494 1264T445 1393ZM522 1395Q518 1347 545 1317T617 1286Q664 1286 701 1321T745 1407Q749 1456 722 1488T649 1520Q601 1520 564 1483T522 1395Z" />
<glyph unicode="&#xe6;" horiz-adv-x="1459" d="M960 -19Q858 -17 780 35T666 182Q600 86 504 32T289 -21Q166 -19 98 65T40 286Q51 445 162 539T450 633L660 632L672 721Q677 766 675 814L673 834Q653 994 520 999Q417 1001 346 938T253 766L147 778Q167 927
274 1017T530 1103Q630 1099 695 1045T779 899Q921 1106 1102 1103Q1225 1100 1298 1019T1384 797Q1391 715 1382 637L1367 536H758L753 509L745 421Q739 265 797 176T966 84Q1048 82 1116 115T1247 200L1279 110Q1156 -23 960 -19ZM313 81Q382 79 454 117T592
231L644 534L449 536Q328 534 246 465T152 282Q143 193 185 138T313 81ZM1094 999Q988 1003 907 917T770 636H1272Q1282 700 1283 741Q1283 857 1236 926T1094 999Z" />
<glyph unicode="&#xe7;" horiz-adv-x="911" d="M390 82Q607 75 668 334H772Q744 172 640 74T384 -21Q235 -19 154 80T71 361Q69 452 96 622Q134 863 251 985T548 1102Q693 1097 769 996T837 717H730Q738 852 689 923T540 999Q269 1008 208 623L187 463L182 391L181
359Q178 90 390 82ZM405 -9L384 -75Q496 -101 491 -237Q486 -333 414 -387T219 -447V-366Q295 -363 343 -330T399 -239Q409 -164 327 -146L278 -137L320 -9H405Z" />
<glyph unicode="&#xe8;" horiz-adv-x="919" d="M410 -20Q235 -17 149 116T88 470L100 570Q131 824 253 965T559 1102Q690 1098 763 1017T846 792Q851 707 841 626L828 531H209L199 469Q190 405 194 338Q199 223 258 154T419 82Q500 80 564 112T686 198L738 122Q614
-24 410 -20ZM552 999Q427 1004 342 914T217 635H732L737 665Q744 720 741 778Q736 878 687 936T552 999ZM652 1255H552L376 1536H510L652 1255Z" />
<glyph unicode="&#xe9;" horiz-adv-x="919" d="M410 -20Q235 -17 149 116T88 470L100 570Q131 824 253 965T559 1102Q690 1098 763 1017T846 792Q851 707 841 626L828 531H209L199 469Q190 405 194 338Q199 223 258 154T419 82Q500 80 564 112T686 198L738 122Q614
-24 410 -20ZM552 999Q427 1004 342 914T217 635H732L737 665Q744 720 741 778Q736 878 687 936T552 999ZM738 1536H889L621 1255H508L738 1536Z" />
<glyph unicode="&#xea;" horiz-adv-x="919" d="M410 -20Q235 -17 149 116T88 470L100 570Q131 824 253 965T559 1102Q690 1098 763 1017T846 792Q851 707 841 626L828 531H209L199 469Q190 405 194 338Q199 223 258 154T419 82Q500 80 564 112T686 198L738 122Q614
-24 410 -20ZM552 999Q427 1004 342 914T217 635H732L737 665Q744 720 741 778Q736 878 687 936T552 999ZM818 1269L817 1257L719 1258L619 1438L452 1259L354 1258L355 1271L588 1526H656L818 1269Z" />
<glyph unicode="&#xeb;" horiz-adv-x="919" d="M410 -20Q235 -17 149 116T88 470L100 570Q131 824 253 965T559 1102Q690 1098 763 1017T846 792Q851 707 841 626L828 531H209L199 469Q190 405 194 338Q199 223 258 154T419 82Q500 80 564 112T686 198L738 122Q614
-24 410 -20ZM552 999Q427 1004 342 914T217 635H732L737 665Q744 720 741 778Q736 878 687 936T552 999ZM313 1395Q315 1429 339 1453T398 1478T455 1455T475 1395Q473 1361 449 1338T390 1314Q355 1314 333 1337T313 1395ZM738 1394Q740 1428 764 1452T823 1477T880
1454T900 1394Q898 1360 874 1337T815 1313Q780 1313 758 1336T738 1394Z" />
<glyph unicode="&#xec;" horiz-adv-x="428" d="M159 0H49L237 1082H348L159 0ZM393 1243H293L117 1524H251L393 1243Z" />
<glyph unicode="&#xed;" horiz-adv-x="428" d="M159 0H49L237 1082H348L159 0ZM478 1780H629L361 1499H248L478 1780Z" />
<glyph unicode="&#xee;" horiz-adv-x="428" d="M159 0H49L237 1082H348L159 0ZM559 1257L558 1245L460 1246L360 1426L193 1247L95 1246L96 1259L329 1514H397L559 1257Z" />
<glyph unicode="&#xef;" horiz-adv-x="428" d="M159 0H49L237 1082H348L159 0ZM54 1383Q56 1417 80 1441T139 1466T196 1443T216 1383Q214 1349 190 1326T131 1302Q96 1302 74 1325T54 1383ZM479 1382Q481 1416 505 1440T564 1465T621 1442T641 1382Q639 1348
615 1325T556 1301Q521 1301 499 1324T479 1382Z" />
<glyph unicode="&#xf0;" horiz-adv-x="1021" d="M805 1302Q918 1077 907 798Q903 703 879 538T788 238T631 39T431 -21Q324 -18 251 44T142 218T120 458Q143 682 259 826T551 966Q628 964 691 928T797 828Q808 1056 707 1235L503 1097L469 1179L657 1304Q565 1406
410 1473L456 1578Q640 1504 753 1370L936 1491L970 1408L805 1302ZM784 690Q759 768 703 812T564 860Q458 864 378 793T259 592T231 337Q241 224 296 156T443 83Q569 78 654 204T768 549L778 627L784 690Z" />
<glyph unicode="&#xf1;" horiz-adv-x="966" d="M332 1082L297 910Q430 1106 604 1103Q808 1099 832 853L835 795L829 704L711 0H602L719 706L724 771Q731 994 569 998Q480 1000 394 926T277 752L149 0H38L226 1082H332ZM920 1494Q907 1394 860 1336T738 1277Q689
1277 627 1333T517 1390Q451 1387 421 1305L410 1272L329 1275Q342 1373 390 1432T512 1490Q547 1490 573 1472T624 1433T675 1395T734 1378Q813 1378 843 1499L920 1494Z" />
<glyph unicode="&#xf2;" horiz-adv-x="985" d="M560 1103Q707 1099 789 996T874 713Q876 622 854 479Q818 241 698 108T396 -21Q261 -17 180 72T83 328L81 368Q78 449 101 603T186 871T342 1045T560 1103ZM192 398Q189 250 243 168T404 82Q534 77 622 176T742
470L759 597L764 682Q767 827 713 911T552 999Q418 1004 327 892T210 582L194 455L192 398ZM657 1255H557L381 1536H515L657 1255Z" />
<glyph unicode="&#xf3;" horiz-adv-x="985" d="M560 1103Q707 1099 789 996T874 713Q876 622 854 479Q818 241 698 108T396 -21Q261 -17 180 72T83 328L81 368Q78 449 101 603T186 871T342 1045T560 1103ZM192 398Q189 250 243 168T404 82Q534 77 622 176T742
470L759 597L764 682Q767 827 713 911T552 999Q418 1004 327 892T210 582L194 455L192 398ZM743 1536H894L626 1255H513L743 1536Z" />
<glyph unicode="&#xf4;" horiz-adv-x="985" d="M560 1103Q707 1099 789 996T874 713Q876 622 854 479Q818 241 698 108T396 -21Q261 -17 180 72T83 328L81 368Q78 449 101 603T186 871T342 1045T560 1103ZM192 398Q189 250 243 168T404 82Q534 77 622 176T742
470L759 597L764 682Q767 827 713 911T552 999Q418 1004 327 892T210 582L194 455L192 398ZM823 1269L822 1257L724 1258L624 1438L457 1259L359 1258L360 1271L593 1526H661L823 1269Z" />
<glyph unicode="&#xf5;" horiz-adv-x="985" d="M560 1103Q707 1099 789 996T874 713Q876 622 854 479Q818 241 698 108T396 -21Q261 -17 180 72T83 328L81 368Q78 449 101 603T186 871T342 1045T560 1103ZM192 398Q189 250 243 168T404 82Q534 77 622 176T742
470L759 597L764 682Q767 827 713 911T552 999Q418 1004 327 892T210 582L194 455L192 398ZM906 1494Q893 1394 846 1336T724 1277Q675 1277 613 1333T503 1390Q437 1387 407 1305L396 1272L315 1275Q328 1373 376 1432T498 1490Q533 1490 559 1472T610 1433T661
1395T720 1378Q799 1378 829 1499L906 1494Z" />
<glyph unicode="&#xf6;" horiz-adv-x="985" d="M560 1103Q707 1099 789 996T874 713Q876 622 854 479Q818 241 698 108T396 -21Q261 -17 180 72T83 328L81 368Q78 449 101 603T186 871T342 1045T560 1103ZM192 398Q189 250 243 168T404 82Q534 77 622 176T742
470L759 597L764 682Q767 827 713 911T552 999Q418 1004 327 892T210 582L194 455L192 398ZM318 1395Q320 1429 344 1453T403 1478T460 1455T480 1395Q478 1361 454 1338T395 1314Q360 1314 338 1337T318 1395ZM743 1394Q745 1428 769 1452T828 1477T885 1454T905
1394Q903 1360 879 1337T820 1313Q785 1313 763 1336T743 1394Z" />
<glyph unicode="&#xf7;" horiz-adv-x="998" d="M900 642H83L105 761H921L900 642ZM501 1088Q503 1124 526 1149T580 1174Q614 1174 633 1150T651 1088Q649 1056 628 1031T571 1005T518 1029T501 1088ZM363 291Q365 323 386 349T442 376Q475 376 495 352T513 291Q511
255 487 231T433 207Q397 207 378 233T363 291Z" />
<glyph unicode="&#xf8;" horiz-adv-x="981" d="M562 1104Q653 1103 733 1054L824 1212H915L791 1006Q885 876 882 674Q877 366 740 169T391 -22Q308 -21 232 19L138 -139L49 -138L171 66Q71 190 73 400Q73 595 137 761T312 1017T562 1104ZM180 430Q170 275 226
170L679 958Q624 997 556 1001Q456 1004 375 937T241 734T180 430ZM774 731Q767 828 733 898L284 114Q336 82 398 80Q540 78 636 203T761 526Q778 659 774 731Z" />
<glyph unicode="&#xf9;" horiz-adv-x="966" d="M631 128Q518 -25 336 -21Q224 -19 163 61T102 297L107 389L223 1082H333L217 386Q212 343 213 292Q213 198 251 143T360 85Q458 81 541 139T651 289L787 1082H898L711 0H603L631 128ZM668 1255H568L392 1536H526L668 1255Z" />
<glyph unicode="&#xfa;" horiz-adv-x="966" d="M631 128Q518 -25 336 -21Q224 -19 163 61T102 297L107 389L223 1082H333L217 386Q212 343 213 292Q213 198 251 143T360 85Q458 81 541 139T651 289L787 1082H898L711 0H603L631 128ZM754 1536H905L637 1255H524L754 1536Z" />
<glyph unicode="&#xfb;" horiz-adv-x="966" d="M631 128Q518 -25 336 -21Q224 -19 163 61T102 297L107 389L223 1082H333L217 386Q212 343 213 292Q213 198 251 143T360 85Q458 81 541 139T651 289L787 1082H898L711 0H603L631 128ZM834 1269L833 1257L735 1258L635
1438L468 1259L370 1258L371 1271L604 1526H672L834 1269Z" />
<glyph unicode="&#xfc;" horiz-adv-x="966" d="M631 128Q518 -25 336 -21Q224 -19 163 61T102 297L107 389L223 1082H333L217 386Q212 343 213 292Q213 198 251 143T360 85Q458 81 541 139T651 289L787 1082H898L711 0H603L631 128ZM329 1395Q331 1429 355 1453T414
1478T471 1455T491 1395Q489 1361 465 1338T406 1314Q371 1314 349 1337T329 1395ZM754 1394Q756 1428 780 1452T839 1477T896 1454T916 1394Q914 1360 890 1337T831 1313Q796 1313 774 1336T754 1394Z" />
<glyph unicode="&#xfd;" horiz-adv-x="841" d="M349 188L754 1082H876L291 -174Q230 -318 160 -379T2 -440Q-28 -440 -84 -424L-72 -323L-22 -331Q106 -337 186 -177L272 15L128 1082H245L349 188ZM706 1536H857L589 1255H476L706 1536Z" />
<glyph unicode="&#xfe;" horiz-adv-x="991" d="M433 -21Q260 -17 178 127L80 -416H-30L309 1536H419L309 944Q431 1107 598 1103Q735 1099 803 984T864 667L856 558L853 537Q815 265 706 120T433 -21ZM746 558Q758 662 753 735Q737 989 564 996Q395 999 289 797L201
264Q225 180 279 132T414 82Q534 78 618 182T737 497L746 558Z" />
<glyph unicode="&#xff;" horiz-adv-x="841" d="M349 188L754 1082H876L291 -174Q230 -318 160 -379T2 -440Q-28 -440 -84 -424L-72 -323L-22 -331Q106 -337 186 -177L272 15L128 1082H245L349 188ZM281 1395Q283 1429 307 1453T366 1478T423 1455T443 1395Q441
1361 417 1338T358 1314Q323 1314 301 1337T281 1395ZM706 1394Q708 1428 732 1452T791 1477T848 1454T868 1394Q866 1360 842 1337T783 1313Q748 1313 726 1336T706 1394Z" />
<glyph unicode="&#x2013;" horiz-adv-x="1137" d="M1244 685H424L447 789H1267L1244 685Z" />
<glyph unicode="&#x2014;" horiz-adv-x="1339" d="M1505 685H412L443 789H1535L1505 685Z" />
<glyph unicode="&#x2018;" horiz-adv-x="352" d="M367 1557L438 1498Q341 1372 317 1233L297 1119H187L205 1231Q235 1427 367 1557Z" />
<glyph unicode="&#x2019;" horiz-adv-x="352" d="M224 1096L163 1152Q261 1284 284 1417L305 1536H414L396 1416Q362 1225 224 1096Z" />
<glyph unicode="&#x201a;" horiz-adv-x="345" d="M-22 -234L-84 -179Q9 -53 35 75L58 204H168L149 83Q117 -102 -22 -234Z" />
<glyph unicode="&#x201c;" horiz-adv-x="565" d="M369 1557L440 1498Q343 1372 319 1233L299 1119H189L207 1231Q237 1427 369 1557ZM583 1557L654 1498Q557 1372 533 1233L513 1119H403L421 1231Q451 1427 583 1557Z" />
<glyph unicode="&#x201d;" horiz-adv-x="570" d="M230 1096L169 1152Q267 1284 290 1417L311 1536H420L402 1416Q368 1225 230 1096ZM438 1096L377 1152Q475 1284 498 1417L519 1536H628L610 1416Q576 1225 438 1096Z" />
<glyph unicode="&#x201e;" horiz-adv-x="549" d="M-19 -245L-85 -188Q12 -56 37 86L64 237H174L149 84Q117 -109 -19 -245ZM180 -245L116 -188Q213 -56 238 92L263 237H373L352 96Q322 -105 180 -245Z" />
<glyph unicode="&#x2022;" horiz-adv-x="652" d="M165 746Q171 829 224 880T358 932Q435 932 480 884T526 756L524 719Q518 637 466 588T332 538Q254 538 209 586T164 711L165 746Z" />
<glyph unicode="&#x2039;" horiz-adv-x="545" d="M208 548L361 166H276L98 545L100 565L403 944H504L208 548Z" />
<glyph unicode="&#x203a;" horiz-adv-x="545" d="M246 944L424 562L421 541L118 161H16L311 557L159 944H246Z" />
</font>
</defs>
</svg>
