<?xml version="1.0" encoding="iso-8859-1"?>
<!-- Generator: Adobe Illustrator 19.0.0, SVG Export Plug-In . SVG Version: 6.00 Build 0)  -->
<svg version="1.1" id="Layer_1" xmlns="http://www.w3.org/2000/svg" xmlns:xlink="http://www.w3.org/1999/xlink" x="0px" y="0px"
	 viewBox="353 -220 1666.667 1000" style="enable-background:new 353 -220 1666.667 1000;" xml:space="preserve">
<g id="Background" style="display:none;">
	<rect id="XMLID_27_" x="-126.904" y="-220" style="display:inline;fill:#18BC9C;" width="1668" height="1000"/>
</g>
<g id="Guides" style="display:none;">
	<g id="XMLID_15_" style="display:inline;">
	</g>
	<g id="XMLID_585_" style="display:inline;">
	</g>
</g>
<g>
	<polygon style="fill:none;" points="474.031,282.854 474.109,282.809 474.031,282.765 	"/>
	<polygon style="fill:none;" points="373.975,294.398 374.059,294.35 373.975,294.301 	"/>
	<polygon style="fill:none;" points="494.042,271.309 494.07,271.293 494.042,271.277 	"/>
	<polygon style="fill:none;" points="514.053,271.309 514.111,271.276 514.053,271.243 	"/>
	<polygon style="fill:none;" points="496.76,604.479 496.76,604.479 498.647,605.567 506.765,610.251 506.781,610.242 
		495.836,603.946 	"/>
	<polygon style="fill:none;" points="1134.552,110.513 1134.552,110.575 1154.547,99.039 1154.493,99.008 	"/>
	<polygon style="fill:none;" points="1114.471,110.553 1114.471,122.098 1104.465,127.87 1104.465,139.415 1094.459,145.188 
		1094.459,156.732 1074.448,168.277 1074.448,179.822 1054.437,191.367 1054.437,202.912 1034.426,214.457 1034.426,226.001 
		1004.409,243.319 1004.409,254.864 994.473,260.596 994.473,260.659 1004.479,254.886 1004.479,243.341 1034.496,226.024 
		1034.496,214.479 1054.507,202.934 1054.507,191.389 1074.518,179.845 1074.518,168.3 1094.529,156.755 1094.529,145.21 
		1104.535,139.438 1104.535,127.893 1114.541,122.12 1114.59,110.547 1124.531,104.812 1124.476,104.781 	"/>
	<polygon style="fill:none;" points="496.76,627.568 496.775,627.559 486.747,621.791 	"/>
	<polygon style="fill:none;" points="1031.683,-149.359 1031.676,-149.355 1031.676,-137.913 1031.683,-137.917 	"/>
	<polygon style="fill:none;" points="1961.885,352.115 1961.885,363.546 1961.93,363.572 1961.93,352.123 1961.93,352.123 
		1951.341,346.032 	"/>
	<polygon style="fill:none;" points="1061.7,-178.261 1061.693,-178.257 1061.693,-166.775 1061.7,-166.779 	"/>
	<polygon style="fill:none;" points="1931.914,369.424 1931.914,369.44 1931.996,369.392 1931.983,369.384 	"/>
	<polygon style="fill:none;" points="1164.568,104.741 1164.568,104.803 1194.57,87.495 1194.516,87.463 	"/>
	<polygon style="fill:none;" points="1071.706,-161.006 1071.618,-160.955 1071.706,-160.904 	"/>
	<polygon style="fill:none;" points="2012.021,311.68 2011.958,311.644 2011.958,311.716 	"/>
	<polygon style="fill:none;" points="1971.936,357.895 1972.058,357.825 1971.936,357.755 	"/>
	<polygon style="fill:none;" points="1941.919,375.213 1942.002,375.165 1941.919,375.117 	"/>
	<polygon style="fill:none;" points="1871.857,380.972 1871.88,380.985 1871.88,369.467 1871.857,369.48 	"/>
	<polygon style="fill:none;" points="1176.29,463.739 1172.303,466.061 1176.302,463.754 1176.302,452.209 1179.486,450.372 
		1176.29,452.194 	"/>
	<polygon style="fill:none;" points="1341.856,613.869 1341.856,613.869 1341.856,613.869 	"/>
	<polygon style="fill:none;" points="1106.263,527.251 1106.174,527.302 1106.263,527.354 	"/>
	<polygon style="fill:none;" points="1156.281,486.85 1156.291,486.844 1156.291,475.387 1156.281,475.393 	"/>
	<polygon style="fill:none;" points="1331.851,608.097 1301.834,590.779 1331.851,608.097 	"/>
	<polygon style="fill:none;" points="1703.517,-42.92 1703.522,-42.923 1703.517,-42.926 	"/>
	<polygon style="fill:none;" points="1186.307,446.437 1156.281,429.172 1186.257,446.466 	"/>
	<polygon style="fill:none;" points="1201.778,763.952 1221.789,752.407 1201.778,763.924 	"/>
	<polygon style="fill:none;" points="964.387,254.864 964.387,266.408 954.381,272.181 954.381,295.271 954.436,295.302 
		954.451,295.293 954.451,272.203 964.457,266.431 964.457,254.886 974.447,249.123 974.393,249.091 	"/>
	<polygon style="fill:none;" points="1244.669,93.163 1244.669,93.226 1254.603,87.494 1254.549,87.463 	"/>
	<polygon style="fill:none;" points="854.325,352.995 844.32,358.767 844.326,358.771 854.338,352.995 854.338,341.458 
		854.325,341.45 	"/>
	<polygon style="fill:none;" points="1204.591,93.196 1204.591,93.258 1214.581,87.495 1214.527,87.463 	"/>
	<polygon style="fill:none;" points="1224.602,93.196 1224.602,93.258 1234.592,87.495 1234.538,87.463 	"/>
	<polygon style="fill:none;" points="894.361,318.352 894.361,318.36 924.371,301.047 920.612,298.879 924.364,301.043 	"/>
	<polygon style="fill:none;" points="874.336,318.36 874.336,329.905 864.331,335.677 864.337,335.681 874.349,329.905 
		874.349,318.36 884.349,312.591 884.342,312.587 	"/>
	<polygon style="fill:none;" points="1186.303,434.89 1186.307,434.892 1196.255,429.153 1196.231,429.139 	"/>
	<polygon style="fill:none;" points="1523.417,37.894 1493.4,20.577 1523.417,37.895 	"/>
	<polygon style="fill:none;" points="1853.601,-117.961 1823.584,-135.279 1853.601,-117.961 	"/>
	<polygon style="fill:none;" points="1691.79,531.062 1701.785,525.296 1691.768,531.05 	"/>
	<polygon style="fill:none;" points="1721.796,513.751 1721.807,513.745 1721.796,513.739 	"/>
	<polygon style="fill:none;" points="1801.841,444.53 1811.785,450.267 1801.841,456.004 1801.841,456.026 1811.845,450.255 
		1801.841,444.484 	"/>
	<polygon style="fill:none;" points="1031.568,-137.872 1011.672,-126.372 1031.587,-137.862 	"/>
	<polygon style="fill:none;" points="1701.691,513.774 1701.69,513.773 1701.676,525.233 1701.785,525.296 1701.785,513.751 
		1711.801,507.972 1711.774,507.957 	"/>
	<rect x="1733.534" y="-48.692" style="fill:none;" width="0" height="0"/>
	<polygon style="fill:#A3A3A3;" points="353.964,282.945 352.999,282.388 352.999,305.333 353.964,305.889 	"/>
	<polygon style="fill:#A3A3A3;" points="483.978,276.976 483.978,265.52 453.962,248.203 453.962,259.736 454.021,259.702 	"/>
	<polygon style="fill:#D6D6D6;" points="354.049,282.805 373.975,271.309 373.975,294.301 374.059,294.35 413.971,271.323 
		424.003,265.536 424.003,265.623 424.003,277.081 433.934,271.352 434.009,271.309 434.009,271.396 434.009,282.854 
		443.94,277.125 454.02,271.309 454.02,282.854 473.956,271.352 474.031,271.309 474.031,282.765 474.109,282.809 484.037,277.081 
		484.037,277.01 483.978,276.976 454.021,259.702 453.962,259.736 453.892,259.777 444.014,254.078 434.058,259.822 
		424.102,254.078 414.122,259.836 393.986,248.219 363.954,265.579 352.999,259.259 352.999,271.912 352.999,282.199 
		352.999,282.348 353.964,282.905 353.964,282.854 	"/>
	<polygon style="fill:#D6D6D6;" points="353.964,305.889 352.999,305.333 352.999,306.5 353.964,305.943 	"/>
	<polygon style="fill:#D6D6D6;" points="494.027,259.79 494.027,259.808 494.042,271.277 494.07,271.293 504.105,265.503 
		514.053,259.764 514.053,271.243 514.111,271.276 544.07,253.992 514.053,236.674 494.096,248.218 484.074,242.436 
		474.064,248.211 463.99,242.402 453.962,248.187 473.516,259.435 484.079,265.529 484.095,265.52 	"/>
	<polygon style="fill:#FFFFFF;" points="474.016,305.969 544.07,265.536 544.07,253.992 514.111,271.276 514.053,271.309 
		514.053,271.243 514.053,259.764 504.105,265.503 494.07,271.293 494.042,271.309 494.042,271.277 494.027,259.808 494.027,259.79 
		484.095,265.52 484.079,265.529 484.022,265.562 484.037,277.01 484.037,277.081 474.109,282.809 474.031,282.854 474.031,282.765 
		474.031,271.309 473.956,271.352 454.02,282.854 454.02,271.309 443.94,277.125 434.009,282.854 434.009,271.396 434.009,271.309 
		433.934,271.352 424.003,277.081 424.003,265.623 424.003,265.536 413.971,271.323 374.059,294.35 373.975,294.398 
		373.975,294.301 373.975,271.309 354.049,282.805 353.964,282.854 353.964,282.905 353.964,282.945 353.964,305.889 
		353.964,305.943 352.999,306.5 352.999,398.876 383.966,381.011 383.966,369.466 474.016,317.514 	"/>
	<polygon style="fill:#A3A3A3;" points="1106.174,527.302 1096.168,533.075 1106.263,538.899 1106.263,538.796 1106.263,527.354 	
		"/>
	<polygon style="fill:#A3A3A3;" points="1106.263,515.706 1106.263,504.263 1076.246,486.946 1076.246,498.491 1106.175,515.757 	
		"/>
	<polygon style="fill:#A3A3A3;" points="1156.281,521.579 1156.281,510.034 1156.199,509.987 1146.193,515.759 	"/>
	<polygon style="fill:#A3A3A3;" points="1156.281,475.393 1126.264,458.076 1126.264,469.62 1156.205,486.894 1156.281,486.85 	"/>
	<polygon style="fill:#A3A3A3;" points="1176.29,452.194 1146.273,434.877 1146.273,446.422 1176.29,463.739 	"/>
	<polygon style="fill:#A3A3A3;" points="1186.307,434.892 1186.303,434.89 1186.294,434.895 1156.277,417.578 1156.281,429.172 
		1186.307,446.437 	"/>
	<polygon style="fill:#A3A3A3;" points="1226.368,469.504 1236.335,475.254 1236.335,463.754 	"/>
	<polygon style="fill:#A3A3A3;" points="1226.262,423.377 1226.27,423.382 1226.33,423.347 1226.33,423.416 1236.276,429.154 
		1236.335,429.12 1236.335,417.644 1206.333,400.249 1206.333,411.819 1226.315,423.347 	"/>
	<polygon style="fill:#A3A3A3;" points="1076.246,533.025 1046.229,515.76 1046.229,515.808 1046.229,527.251 1046.229,527.353 
		1076.246,544.67 1076.246,544.568 1076.246,533.125 	"/>
	<polygon style="fill:#D6D6D6;" points="1076.246,533.023 1106.175,515.757 1076.246,498.491 1046.046,515.655 1046.229,515.76 
		1076.246,533.025 	"/>
	<polygon style="fill:#D6D6D6;" points="1136.28,486.844 1136.28,498.389 1156.16,486.919 1126.264,469.672 1116.256,475.376 
		1106.354,469.664 1076.154,486.828 1106.276,504.154 1126.274,492.617 	"/>
	<polygon style="fill:#D6D6D6;" points="1156.291,475.387 1156.291,475.299 1172.303,466.061 1176.29,463.739 1146.273,446.422 
		1126.264,458.076 1156.281,475.393 	"/>
	<polygon style="fill:#D6D6D6;" points="1179.486,450.372 1186.257,446.466 1156.281,429.172 1146.273,434.877 1176.29,452.194 	"/>
	<polygon style="fill:#D6D6D6;" points="1186.303,434.89 1196.231,429.139 1196.255,429.153 1206.318,423.347 1206.319,423.347 
		1206.319,423.348 1206.319,434.892 1216.324,429.12 1226.27,423.382 1226.262,423.377 1226.315,423.347 1206.333,411.819 
		1196.298,406.03 1186.361,411.786 1176.298,405.981 1156.277,417.578 1186.294,434.895 	"/>
	<polygon style="fill:#D6D6D6;" points="1226.33,434.892 1236.276,429.154 1226.33,423.416 	"/>
	<polygon style="fill:#D6D6D6;" points="1236.335,417.613 1236.335,417.575 1236.34,417.572 1246.341,411.802 1246.341,423.344 
		1246.341,423.347 1246.343,423.346 1256.347,417.575 1256.347,429.12 1266.353,423.347 1276.358,417.575 1276.358,429.12 
		1296.369,417.575 1266.487,400.335 1256.414,406.069 1246.476,400.335 1236.402,406.069 1226.918,400.599 1216.323,394.489 
		1206.333,400.249 1236.335,417.644 	"/>
	<polygon style="fill:#FFFFFF;" points="1156.199,509.987 1156.291,509.934 1156.291,521.479 1206.319,492.616 1206.319,481.072 
		1226.368,469.504 1236.335,463.754 1236.335,475.254 1236.335,475.299 1266.352,457.982 1266.352,446.437 1296.369,429.12 
		1296.369,417.575 1276.358,429.12 1276.358,417.575 1266.353,423.347 1256.347,429.12 1256.347,417.575 1246.343,423.346 
		1246.341,423.347 1246.341,423.344 1246.341,411.802 1236.34,417.572 1236.335,417.575 1236.335,417.613 1236.335,417.644 
		1236.335,429.12 1236.276,429.154 1226.33,434.892 1226.33,423.416 1226.33,423.347 1226.27,423.382 1216.324,429.12 
		1206.319,434.892 1206.319,423.348 1206.319,423.347 1206.318,423.347 1196.255,429.153 1186.307,434.892 1186.307,446.437 
		1186.257,446.466 1179.486,450.372 1176.302,452.209 1176.302,463.754 1172.303,466.061 1156.291,475.299 1156.291,475.387 
		1156.291,486.844 1156.281,486.85 1156.205,486.894 1156.16,486.919 1136.28,498.389 1136.28,486.844 1126.274,492.617 
		1106.276,504.154 1106.263,504.161 1106.263,504.263 1106.263,515.706 1106.175,515.757 1076.246,533.023 1076.246,533.025 
		1076.246,533.125 1076.246,544.568 1096.168,533.075 1106.174,527.302 1106.263,527.251 1106.263,527.354 1106.263,538.796 
		1146.193,515.759 	"/>
	<polygon style="fill:#D6D6D6;" points="1131.739,758.18 1111.728,769.725 1129.539,780 1153.951,780 1161.756,775.497 	"/>
	<polygon style="fill:#D6D6D6;" points="1181.767,752.407 1181.767,752.407 1181.652,752.341 1176.855,749.573 1151.75,735.09 
		1131.739,746.635 1161.756,763.952 	"/>
	<polygon style="fill:#D6D6D6;" points="1191.773,758.18 1191.773,758.18 1201.778,752.407 1201.778,763.924 1221.789,752.407 
		1191.773,735.09 1191.773,758.18 	"/>
	<polygon style="fill:#D6D6D6;" points="1181.767,740.862 1191.773,735.09 1161.756,717.773 1151.75,723.545 1181.756,740.855 	"/>
	<polygon style="fill:#D6D6D6;" points="1241.801,729.318 1211.784,712 1191.773,723.545 1221.789,740.862 	"/>
	<polygon style="fill:#D6D6D6;" points="1261.812,706.228 1231.795,688.911 1211.784,700.455 1241.801,717.773 	"/>
	<polygon style="fill:#D6D6D6;" points="1271.817,688.911 1241.801,671.593 1231.795,677.366 1261.812,694.683 	"/>
	<polygon style="fill:#D6D6D6;" points="1281.823,671.593 1251.806,654.276 1241.801,660.048 1271.817,677.366 	"/>
	<polygon style="fill:#D6D6D6;" points="1301.834,648.504 1271.817,631.186 1251.806,642.731 1281.823,660.048 	"/>
	<polygon style="fill:#D6D6D6;" points="1331.851,619.641 1301.834,602.324 1271.817,619.641 1301.834,636.959 	"/>
	<polygon style="fill:#D6D6D6;" points="1421.902,602.324 1411.896,596.552 1391.885,608.096 1381.879,602.324 1371.874,608.096 
		1361.868,602.324 1351.862,608.096 1311.84,585.007 1301.834,590.779 1331.851,608.097 1341.856,602.324 1341.856,613.869 
		1341.856,613.869 1341.856,613.869 1351.862,608.097 1351.862,619.641 1361.868,613.869 1361.868,625.414 1371.873,619.641 
		1371.873,619.641 1371.873,619.641 1371.873,631.186 1381.878,625.414 1391.884,619.641 1391.884,631.186 1401.89,625.413 
		1411.896,619.641 1411.896,631.186 1431.906,619.641 1441.912,613.869 1441.912,625.414 1461.924,613.869 1431.907,596.552 	"/>
	<polygon style="fill:#A3A3A3;" points="1111.728,780 1129.539,780 1111.728,769.725 	"/>
	<polygon style="fill:#A3A3A3;" points="1161.756,763.952 1131.739,746.635 1131.739,758.18 1161.756,775.497 	"/>
	<polygon style="fill:#A3A3A3;" points="1181.652,752.341 1181.767,752.407 1181.767,740.862 1181.756,740.855 1151.75,723.545 
		1151.75,735.09 1176.855,749.573 	"/>
	<polygon style="fill:#A3A3A3;" points="1221.789,740.862 1191.773,723.545 1191.773,735.09 1221.789,752.407 	"/>
	<polygon style="fill:#A3A3A3;" points="1241.801,717.773 1211.784,700.455 1211.784,712 1241.801,729.318 	"/>
	<polygon style="fill:#A3A3A3;" points="1261.812,694.683 1231.795,677.366 1231.795,688.911 1261.812,706.228 	"/>
	<polygon style="fill:#A3A3A3;" points="1271.817,677.366 1241.801,660.048 1241.801,671.593 1271.817,688.911 	"/>
	<polygon style="fill:#A3A3A3;" points="1281.823,660.048 1251.806,642.731 1251.806,654.276 1281.823,671.593 	"/>
	<polygon style="fill:#A3A3A3;" points="1301.834,636.959 1271.817,619.641 1271.817,631.186 1301.834,648.504 	"/>
	<polygon style="fill:#A3A3A3;" points="1331.851,608.097 1301.834,590.779 1301.834,602.324 1331.851,619.641 	"/>
	<polygon style="fill:#A3A3A3;" points="1401.89,648.503 1411.896,654.276 1411.896,642.731 	"/>
	<polygon style="fill:#A3A3A3;" points="1321.846,694.683 1331.851,700.455 1331.851,688.911 	"/>
	<polygon style="fill:#FFFFFF;" points="1441.912,613.869 1431.906,619.641 1411.896,631.186 1411.896,619.641 1401.89,625.413 
		1391.884,631.186 1391.884,619.641 1381.878,625.414 1371.873,631.186 1371.873,619.641 1371.873,619.641 1371.873,619.641 
		1361.868,625.414 1361.868,613.869 1351.862,619.641 1351.862,608.097 1341.856,613.869 1341.856,613.869 1341.856,602.324 
		1331.851,608.097 1331.851,608.097 1331.851,619.641 1301.834,636.959 1301.834,648.504 1281.823,660.048 1281.823,671.593 
		1271.817,677.366 1271.817,688.911 1261.812,694.683 1261.812,706.228 1241.801,717.773 1241.801,729.318 1221.789,740.862 
		1221.789,752.407 1201.778,763.952 1201.778,763.924 1201.778,752.407 1191.773,758.18 1191.773,758.18 1191.773,758.18 
		1191.773,735.09 1181.767,740.862 1181.767,752.407 1181.767,752.407 1161.756,763.952 1161.756,775.497 1153.951,780 
		1213.984,780 1271.817,746.635 1271.817,735.09 1301.834,717.773 1301.834,706.228 1321.846,694.683 1331.851,688.911 
		1331.851,700.455 1381.879,671.593 1381.879,660.048 1401.89,648.503 1411.896,642.731 1411.896,654.276 1461.924,625.414 
		1461.924,613.869 1441.912,625.414 	"/>
	<polygon style="fill:#A3A3A3;" points="424.328,88.502 424.328,100.047 454.345,117.364 454.345,105.819 	"/>
	<polygon style="fill:#A3A3A3;" points="474.356,82.73 444.339,65.412 444.339,76.957 474.356,94.275 	"/>
	<polygon style="fill:#A3A3A3;" points="514.378,59.64 484.361,42.323 484.361,53.868 514.378,71.185 	"/>
	<polygon style="fill:#A3A3A3;" points="534.389,71.185 544.395,76.957 544.395,65.412 	"/>
	<polygon style="fill:#A3A3A3;" points="524.384,53.868 524.384,53.867 524.384,42.323 494.367,25.005 494.367,36.55 
		514.378,48.095 	"/>
	<polygon style="fill:#A3A3A3;" points="574.412,59.64 584.417,65.412 584.417,53.868 	"/>
	<polygon style="fill:#A3A3A3;" points="534.389,25.005 504.373,7.688 504.373,19.233 534.389,36.55 	"/>
	<polygon style="fill:#A3A3A3;" points="554.401,1.916 524.384,-15.402 524.384,-3.857 554.401,13.461 	"/>
	<polygon style="fill:#A3A3A3;" points="624.439,42.322 634.445,48.095 634.445,36.55 	"/>
	<polygon style="fill:#A3A3A3;" points="614.434,1.916 584.417,-15.402 584.417,7.688 614.434,25.005 	"/>
	<polygon style="fill:#A3A3A3;" points="624.44,-26.946 594.423,-44.264 594.423,-21.174 624.44,-3.857 	"/>
	<polygon style="fill:#A3A3A3;" points="644.451,-50.036 614.434,-67.353 614.434,-55.809 644.451,-38.491 	"/>
	<polygon style="fill:#A3A3A3;" points="654.456,-67.353 624.44,-84.671 624.44,-73.126 654.456,-55.809 	"/>
	<polygon style="fill:#A3A3A3;" points="664.462,-84.67 654.456,-90.443 654.456,-90.443 634.445,-101.988 634.445,-90.443 
		664.462,-73.126 	"/>
	<polygon style="fill:#A3A3A3;" points="724.495,-3.857 734.501,1.916 734.501,-9.629 	"/>
	<polygon style="fill:#A3A3A3;" points="804.54,-61.581 794.535,-55.809 804.54,-50.036 	"/>
	<polygon style="fill:#D6D6D6;" points="474.356,94.275 444.339,76.957 424.328,88.502 454.345,105.819 	"/>
	<polygon style="fill:#D6D6D6;" points="484.362,76.957 494.367,71.185 494.367,82.73 514.378,71.185 484.361,53.868 474.355,59.64 
		464.35,53.868 444.339,65.412 474.356,82.73 	"/>
	<polygon style="fill:#D6D6D6;" points="854.568,-90.443 844.563,-96.215 844.563,-84.671 	"/>
	<polygon style="fill:#D6D6D6;" points="524.384,53.868 514.378,48.095 494.367,36.55 484.361,42.323 514.378,59.64 	"/>
	<polygon style="fill:#D6D6D6;" points="534.389,36.55 504.373,19.233 494.367,25.005 524.384,42.323 	"/>
	<polygon style="fill:#D6D6D6;" points="554.401,13.461 524.384,-3.857 504.373,7.688 534.389,25.005 	"/>
	<polygon style="fill:#D6D6D6;" points="574.412,-9.629 544.395,-26.946 524.384,-15.402 554.401,1.916 	"/>
	<polygon style="fill:#D6D6D6;" points="584.417,7.688 574.412,1.916 574.412,13.461 	"/>
	<polygon style="fill:#D6D6D6;" points="594.423,13.461 594.423,36.55 614.434,25.005 584.417,7.688 584.417,19.233 	"/>
	<polygon style="fill:#D6D6D6;" points="624.44,-3.857 594.423,-21.174 584.417,-15.402 614.434,1.916 	"/>
	<polygon style="fill:#D6D6D6;" points="644.451,-38.491 614.434,-55.809 594.423,-44.264 624.44,-26.946 	"/>
	<polygon style="fill:#D6D6D6;" points="654.456,-55.809 624.44,-73.126 614.434,-67.353 644.451,-50.036 	"/>
	<polygon style="fill:#D6D6D6;" points="664.462,-73.126 634.445,-90.443 624.44,-84.671 654.456,-67.353 	"/>
	<polygon style="fill:#D6D6D6;" points="654.456,-90.443 664.462,-84.67 664.462,-84.671 674.467,-90.443 684.473,-96.216 
		654.456,-113.533 634.445,-101.988 654.456,-90.443 	"/>
	<polygon style="fill:#D6D6D6;" points="694.479,-78.898 694.479,-55.809 714.49,-67.353 714.49,-55.809 724.496,-61.581 
		734.501,-67.353 734.501,-55.809 754.512,-67.354 764.518,-73.126 764.518,-61.581 794.534,-78.898 804.54,-84.671 804.54,-73.126 
		844.562,-96.216 814.546,-113.533 784.53,-96.216 774.524,-101.988 744.507,-84.671 734.501,-90.443 714.49,-78.898 
		704.484,-84.671 694.478,-78.898 684.473,-84.671 684.473,-73.126 	"/>
	<polygon style="fill:#FFFFFF;" points="804.54,-50.036 854.568,-78.898 854.568,-90.443 844.563,-84.671 844.563,-96.215 
		844.563,-96.216 844.562,-96.216 804.54,-73.126 804.54,-84.671 794.534,-78.898 764.518,-61.581 764.518,-73.126 754.512,-67.354 
		734.501,-55.809 734.501,-67.353 724.496,-61.581 714.49,-55.809 714.49,-67.353 694.479,-55.809 694.479,-78.898 684.473,-73.126 
		684.473,-84.671 684.473,-96.216 674.467,-90.443 664.462,-84.671 664.462,-84.67 664.462,-73.126 654.456,-67.353 
		654.456,-55.809 644.451,-50.036 644.451,-38.491 624.44,-26.946 624.44,-3.857 614.434,1.916 614.434,25.005 594.423,36.55 
		594.423,13.461 584.417,19.233 584.417,7.688 574.412,13.461 574.412,1.916 574.412,-9.629 554.401,1.916 554.401,13.461 
		534.389,25.005 534.389,36.55 524.384,42.323 524.384,53.867 524.384,53.868 514.378,59.64 514.378,71.185 494.367,82.73 
		494.367,71.185 484.362,76.957 474.356,82.73 474.356,94.275 454.345,105.819 454.345,117.364 534.389,71.185 544.395,65.412 
		544.395,76.957 574.412,59.64 584.417,53.868 584.417,65.412 624.439,42.322 634.445,36.55 634.445,48.095 724.495,-3.857 
		734.501,-9.629 734.501,1.916 774.524,-21.174 774.524,-32.719 794.535,-44.264 794.535,-55.809 804.54,-61.581 	"/>
	<polygon style="fill:#A3A3A3;" points="804.297,358.767 834.314,376.085 834.314,364.54 804.297,347.222 	"/>
	<polygon style="fill:#A3A3A3;" points="854.325,341.45 824.309,324.133 824.309,335.678 854.325,352.995 	"/>
	<polygon style="fill:#A3A3A3;" points="854.325,376.085 854.325,364.547 844.326,370.316 	"/>
	<polygon style="fill:#A3A3A3;" points="844.326,358.771 844.32,358.767 834.314,364.54 834.327,364.547 834.327,364.54 	"/>
	<polygon style="fill:#A3A3A3;" points="874.349,353.002 884.342,358.767 884.342,347.231 874.349,352.995 	"/>
	<polygon style="fill:#A3A3A3;" points="854.325,341.45 854.338,341.458 854.338,341.45 864.337,335.681 864.331,335.677 	"/>
	<polygon style="fill:#A3A3A3;" points="874.336,318.36 844.32,301.043 844.32,312.588 874.336,329.905 	"/>
	<polygon style="fill:#A3A3A3;" points="964.387,312.588 964.387,301.106 954.435,306.847 	"/>
	<polygon style="fill:#A3A3A3;" points="954.436,295.302 954.381,295.271 954.381,272.181 924.364,254.864 924.364,277.953 
		939.059,286.431 954.381,295.271 944.376,301.043 934.37,295.271 914.359,283.726 914.359,295.271 920.612,298.879 
		924.371,301.047 924.377,301.043 924.377,301.05 944.376,312.588 944.376,301.044 944.445,301.083 944.445,301.066 	"/>
	<polygon style="fill:#A3A3A3;" points="994.404,306.815 994.404,295.333 984.453,301.074 	"/>
	<polygon style="fill:#A3A3A3;" points="964.387,254.864 934.37,237.546 934.37,249.091 964.387,266.408 	"/>
	<polygon style="fill:#A3A3A3;" points="984.468,243.341 984.468,243.359 994.458,249.123 994.473,249.114 994.473,249.132 
		1004.409,254.864 1004.409,243.319 974.392,226.001 974.392,237.546 984.452,243.35 	"/>
	<polygon style="fill:#A3A3A3;" points="1034.426,214.457 1004.409,197.139 1004.409,208.684 1034.426,226.001 	"/>
	<polygon style="fill:#A3A3A3;" points="1084.454,254.864 1084.454,243.381 1074.503,249.123 	"/>
	<polygon style="fill:#A3A3A3;" points="1054.437,191.367 1024.42,174.05 1024.42,185.595 1054.437,202.912 	"/>
	<polygon style="fill:#A3A3A3;" points="1074.448,168.277 1044.432,150.96 1044.432,162.505 1074.448,179.822 	"/>
	<polygon style="fill:#A3A3A3;" points="1094.459,145.188 1064.443,127.87 1064.443,139.415 1094.459,156.732 	"/>
	<polygon style="fill:#A3A3A3;" points="1104.465,127.87 1074.448,110.553 1074.448,122.098 1104.465,139.415 	"/>
	<polygon style="fill:#A3A3A3;" points="1114.471,110.553 1084.454,93.236 1084.454,104.781 1114.471,122.098 	"/>
	<polygon style="fill:#A3A3A3;" points="1124.476,243.319 1124.476,231.836 1114.525,237.578 	"/>
	<polygon style="fill:#D6D6D6;" points="854.325,352.995 824.309,335.678 804.297,347.222 834.314,364.54 834.314,364.54 
		844.32,358.767 	"/>
	<polygon style="fill:#D6D6D6;" points="864.331,335.677 874.336,329.905 844.32,312.588 824.309,324.133 854.325,341.45 	"/>
	<polygon style="fill:#D6D6D6;" points="884.342,312.587 884.349,312.591 894.361,306.816 894.361,318.352 924.364,301.043 
		920.612,298.879 914.359,295.271 894.348,283.726 874.337,295.271 864.331,289.498 844.32,301.043 874.336,318.36 	"/>
	<polygon style="fill:#D6D6D6;" points="974.393,249.091 974.447,249.123 984.452,243.35 974.392,237.546 974.392,237.546 
		954.381,226.001 934.37,237.546 964.387,254.864 	"/>
	<polygon style="fill:#D6D6D6;" points="964.387,266.408 934.37,249.091 924.364,254.864 954.381,272.181 	"/>
	<polygon style="fill:#D6D6D6;" points="944.376,301.043 954.381,295.271 939.059,286.431 924.364,277.953 914.359,283.726 
		934.37,295.271 	"/>
	<polygon style="fill:#D6D6D6;" points="994.473,249.132 994.473,260.596 1004.409,254.864 	"/>
	<polygon style="fill:#D6D6D6;" points="984.468,254.886 994.458,249.123 984.468,243.359 	"/>
	<polygon style="fill:#D6D6D6;" points="1034.426,226.001 1004.409,208.684 974.392,226.001 1004.409,243.319 	"/>
	<polygon style="fill:#D6D6D6;" points="1054.437,202.912 1024.42,185.595 1004.409,197.139 1034.426,214.457 	"/>
	<polygon style="fill:#D6D6D6;" points="1074.448,179.822 1044.432,162.505 1024.42,174.05 1054.437,191.367 	"/>
	<polygon style="fill:#D6D6D6;" points="1094.459,156.732 1064.443,139.415 1044.432,150.96 1074.448,168.277 	"/>
	<polygon style="fill:#D6D6D6;" points="1124.476,104.781 1124.531,104.812 1134.552,99.031 1134.552,110.513 1154.493,99.008 
		1154.547,99.039 1164.568,93.258 1164.568,104.741 1194.516,87.463 1194.57,87.495 1204.575,81.722 1204.591,81.713 
		1204.591,81.731 1204.591,93.196 1214.527,87.463 1214.581,87.495 1224.587,81.722 1224.602,81.713 1224.602,81.731 
		1224.602,93.196 1234.538,87.463 1234.592,87.495 1244.598,81.722 1244.613,81.713 1244.613,81.731 1244.669,93.163 
		1254.549,87.463 1254.603,87.494 1264.609,81.722 1264.555,81.691 1264.555,81.691 1234.538,64.374 1224.532,70.146 
		1214.527,64.374 1204.521,70.146 1194.515,64.374 1184.509,70.146 1174.504,64.374 1144.488,81.691 1134.482,75.918 
		1114.471,87.463 1104.465,81.691 1084.454,93.236 1114.471,110.553 	"/>
	<polygon style="fill:#D6D6D6;" points="1104.465,139.415 1074.448,122.098 1064.443,127.87 1094.459,145.188 	"/>
	<polygon style="fill:#D6D6D6;" points="1114.471,122.098 1084.454,104.781 1074.448,110.553 1104.465,127.87 	"/>
	<polygon style="fill:#D6D6D6;" points="1274.56,87.463 1264.624,81.731 1264.68,93.164 	"/>
	<polygon style="fill:#FFFFFF;" points="924.371,301.047 894.361,318.36 894.361,318.352 894.361,306.816 884.349,312.591 
		874.349,318.36 874.349,329.905 864.337,335.681 854.338,341.45 854.338,341.458 854.338,352.995 844.326,358.771 834.327,364.54 
		834.327,364.547 834.327,376.085 844.326,370.316 854.325,364.547 854.338,364.54 854.338,376.085 874.349,364.54 874.349,353.002 
		874.349,352.995 884.342,347.231 884.355,347.223 884.355,358.767 904.366,347.223 904.366,335.678 914.372,329.905 
		914.372,318.36 924.377,312.588 924.377,301.05 924.377,301.043 	"/>
	<polygon style="fill:#FFFFFF;" points="1064.513,266.431 1064.513,254.886 1074.503,249.123 1084.454,243.381 1084.524,243.341 
		1084.524,254.886 1114.525,237.578 1124.476,231.836 1124.546,231.796 1124.546,243.341 1184.58,208.707 1184.58,197.162 
		1214.596,179.845 1214.596,168.3 1225.285,162.133 1224.602,150.982 1234.608,145.21 1234.608,133.665 1244.613,127.893 
		1244.613,116.348 1274.63,99.031 1274.63,87.486 1264.68,93.226 1264.68,93.164 1264.624,81.731 1264.624,81.713 1264.609,81.722 
		1254.603,87.494 1244.669,93.226 1244.669,93.163 1244.613,81.731 1244.613,81.713 1244.598,81.722 1234.592,87.495 
		1224.602,93.258 1224.602,93.196 1224.602,81.731 1224.602,81.713 1224.587,81.722 1214.581,87.495 1204.591,93.258 
		1204.591,93.196 1204.591,81.731 1204.591,81.713 1204.575,81.722 1194.57,87.495 1164.568,104.803 1164.568,104.741 
		1164.568,93.258 1154.547,99.039 1134.552,110.575 1134.552,110.513 1134.552,99.031 1124.531,104.812 1114.59,110.547 
		1114.541,122.12 1104.535,127.893 1104.535,139.438 1094.529,145.21 1094.529,156.755 1074.518,168.3 1074.518,179.845 
		1054.507,191.389 1054.507,202.934 1034.496,214.479 1034.496,226.024 1004.479,243.341 1004.479,254.886 994.473,260.659 
		994.473,260.596 994.473,249.132 994.473,249.114 994.458,249.123 984.468,254.886 984.468,243.359 984.468,243.341 
		984.452,243.35 974.447,249.123 964.457,254.886 964.457,266.431 954.451,272.203 954.451,295.293 954.436,295.302 
		944.445,301.066 944.445,301.083 944.445,312.61 954.435,306.847 964.387,301.106 964.457,301.066 964.457,312.61 984.453,301.074 
		994.404,295.333 994.473,295.293 994.473,306.838 	"/>
	<polygon style="fill:#A3A3A3;" points="486.747,621.791 466.743,610.285 466.743,621.796 496.76,639.113 496.76,627.568 	"/>
	<polygon style="fill:#A3A3A3;" points="516.771,627.568 526.776,633.341 526.776,621.796 	"/>
	<polygon style="fill:#A3A3A3;" points="486.754,575.668 486.754,587.161 516.771,604.479 516.771,592.934 	"/>
	<polygon style="fill:#A3A3A3;" points="566.799,610.251 576.804,616.023 576.804,604.479 	"/>
	<polygon style="fill:#A3A3A3;" points="506.765,552.578 506.765,564.072 536.782,581.389 536.782,569.844 	"/>
	<polygon style="fill:#A3A3A3;" points="616.826,581.389 626.832,587.161 626.832,575.616 	"/>
	<polygon style="fill:#A3A3A3;" points="556.587,535.143 556.629,535.119 536.782,523.69 536.782,535.209 566.799,552.527 
		566.799,541.017 	"/>
	<polygon style="fill:#A3A3A3;" points="498.647,605.567 496.76,604.479 496.76,604.479 495.836,603.946 476.748,592.967 
		476.748,604.479 506.765,621.796 506.765,610.251 	"/>
	<polygon style="fill:#D6D6D6;" points="496.775,627.559 506.765,621.796 476.654,604.432 466.626,610.218 466.743,610.285 
		486.747,621.791 	"/>
	<polygon style="fill:#D6D6D6;" points="506.781,610.242 516.771,604.479 486.66,587.115 476.632,592.9 476.748,592.967 
		495.836,603.946 	"/>
	<polygon style="fill:#D6D6D6;" points="536.782,581.389 506.671,564.025 486.548,575.55 486.754,575.668 516.771,592.934 	"/>
	<polygon style="fill:#D6D6D6;" points="566.799,552.527 536.688,535.163 506.559,552.46 506.765,552.578 536.782,569.844 	"/>
	<polygon style="fill:#D6D6D6;" points="556.587,535.143 566.799,541.017 566.799,540.982 576.804,535.209 576.804,546.754 
		586.81,540.982 586.81,552.527 616.782,535.235 626.832,529.437 626.832,540.982 646.839,529.439 636.744,523.618 626.708,529.366 
		596.721,512.074 566.657,529.355 546.788,517.892 536.76,523.677 536.782,523.69 556.629,535.119 	"/>
	<polygon style="fill:#D6D6D6;" points="646.843,552.527 666.855,540.982 646.843,529.442 	"/>
	<polygon style="fill:#FFFFFF;" points="646.843,529.442 646.843,529.437 646.839,529.439 626.832,540.982 626.832,529.437 
		616.782,535.235 586.81,552.527 586.81,540.982 576.804,546.754 576.804,535.209 566.799,540.982 566.799,541.017 566.799,552.527 
		536.782,569.844 536.782,581.389 516.771,592.934 516.771,604.479 506.781,610.242 506.765,610.251 506.765,621.796 
		496.775,627.559 496.76,627.568 496.76,639.113 516.771,627.568 526.776,621.796 526.776,633.341 566.799,610.251 576.804,604.479 
		576.804,616.023 606.821,598.706 606.821,587.161 616.826,581.389 626.832,575.616 626.832,587.161 656.849,569.844 
		656.849,558.299 666.855,552.527 666.855,540.982 646.843,552.527 	"/>
	<polygon style="fill:#D6D6D6;" points="1031.568,-137.872 1001.659,-155.127 1001.659,-155.248 1001.658,-155.249 
		981.655,-143.689 1011.672,-126.372 	"/>
	<polygon style="fill:#D6D6D6;" points="1031.683,-149.359 1031.683,-149.461 1061.639,-166.744 1031.683,-184.096 
		1001.659,-166.672 1031.676,-149.355 	"/>
	<polygon style="fill:#D6D6D6;" points="1061.7,-178.261 1061.7,-178.324 1071.68,-184.081 1071.706,-184.096 1071.706,-184.066 
		1071.706,-172.551 1081.665,-178.297 1091.712,-184.093 1091.717,-184.096 1061.7,-201.413 1051.705,-195.635 1041.689,-201.413 
		1031.683,-195.641 1061.693,-178.257 	"/>
	<polygon style="fill:#D6D6D6;" points="1101.717,-178.321 1091.717,-184.09 1091.717,-172.551 	"/>
	<polygon style="fill:#D6D6D6;" points="1141.745,-201.413 1111.728,-218.731 1101.722,-212.958 1131.739,-195.641 	"/>
	<polygon style="fill:#D6D6D6;" points="1153.951,-220 1129.539,-220 1141.745,-212.958 	"/>
	<polygon style="fill:#A3A3A3;" points="1011.672,-126.372 981.655,-143.689 981.655,-132.144 1011.672,-114.827 	"/>
	<polygon style="fill:#A3A3A3;" points="1031.568,-137.872 1031.587,-137.862 1031.676,-137.913 1031.676,-149.355 
		1001.659,-166.672 1001.659,-155.248 1001.659,-155.127 	"/>
	<polygon style="fill:#A3A3A3;" points="1071.618,-160.955 1061.7,-155.234 1071.706,-149.36 1071.706,-149.461 1071.706,-160.904 	
		"/>
	<polygon style="fill:#A3A3A3;" points="1061.693,-166.775 1061.693,-178.257 1031.683,-195.641 1031.683,-184.096 
		1061.639,-166.744 	"/>
	<polygon style="fill:#A3A3A3;" points="1131.739,-195.641 1101.722,-212.958 1101.722,-201.413 1131.739,-184.096 	"/>
	<polygon style="fill:#A3A3A3;" points="1141.745,-212.958 1129.539,-220 1111.728,-220 1111.728,-218.731 1141.745,-201.413 	"/>
	<polygon style="fill:#A3A3A3;" points="1181.767,-212.958 1191.773,-207.186 1191.773,-218.731 	"/>
	<polygon style="fill:#A3A3A3;" points="1161.756,-212.958 1171.761,-207.186 1171.761,-218.731 	"/>
	<polygon style="fill:#FFFFFF;" points="1141.745,-201.413 1131.739,-195.641 1131.739,-184.096 1161.756,-201.413 
		1161.756,-212.958 1171.761,-218.731 1171.761,-207.186 1181.767,-212.958 1191.773,-218.731 1191.773,-207.186 1213.984,-220 
		1153.951,-220 1141.745,-212.958 	"/>
	<polygon style="fill:#FFFFFF;" points="1081.665,-178.297 1071.706,-172.551 1071.706,-184.066 1071.706,-184.096 
		1071.68,-184.081 1061.7,-178.324 1061.7,-178.261 1061.7,-166.779 1061.693,-166.775 1061.639,-166.744 1031.683,-149.461 
		1031.683,-149.359 1031.683,-137.917 1031.676,-137.913 1031.587,-137.862 1011.672,-126.372 1011.672,-114.827 1051.694,-137.917 
		1051.694,-149.461 1061.7,-155.234 1071.618,-160.955 1071.706,-161.006 1071.706,-160.904 1071.706,-149.461 1101.722,-166.779 
		1101.722,-178.324 1101.717,-178.321 1091.717,-172.551 1091.717,-184.09 1091.717,-184.096 1091.712,-184.093 	"/>
	<polygon style="fill:#A3A3A3;" points="1581.732,606.15 1581.791,617.697 1611.735,634.972 1611.735,623.459 	"/>
	<polygon style="fill:#A3A3A3;" points="1601.788,594.602 1631.732,611.877 1631.746,600.373 1601.729,583.056 	"/>
	<polygon style="fill:#A3A3A3;" points="1651.757,577.294 1651.695,577.258 1651.663,577.277 1621.755,560.022 1621.813,571.517 
		1651.757,588.792 	"/>
	<polygon style="fill:#A3A3A3;" points="1691.79,531.062 1691.768,531.05 1691.691,531.094 1661.824,513.864 1661.882,525.32 
		1691.779,542.568 1691.779,531.068 	"/>
	<polygon style="fill:#A3A3A3;" points="1701.676,525.233 1701.69,513.773 1671.674,496.456 1671.733,507.998 1671.768,507.978 	"/>
	<polygon style="fill:#A3A3A3;" points="1671.674,496.453 1671.674,496.456 1671.677,496.454 	"/>
	<polygon style="fill:#A3A3A3;" points="1751.813,484.889 1751.778,484.869 1751.718,484.903 1721.796,467.64 1721.796,479.116 
		1751.813,496.433 	"/>
	<polygon style="fill:#A3A3A3;" points="1771.843,461.788 1741.868,444.495 1741.868,456.036 1771.824,473.319 1771.824,461.799 	
		"/>
	<polygon style="fill:#A3A3A3;" points="1741.868,444.492 1741.868,444.495 1741.871,444.493 	"/>
	<polygon style="fill:#A3A3A3;" points="1781.84,421.4 1781.84,421.456 1781.888,421.428 	"/>
	<polygon style="fill:#A3A3A3;" points="1801.841,444.484 1811.845,450.255 1811.847,450.254 1811.847,438.768 1781.84,421.456 
		1781.84,432.943 1801.841,444.482 	"/>
	<polygon style="fill:#A3A3A3;" points="1831.858,415.66 1801.841,398.343 1801.841,409.887 1831.823,427.185 1831.858,427.164 	"/>
	<polygon style="fill:#A3A3A3;" points="1841.908,398.276 1812.007,381.025 1812.007,392.55 1841.863,409.774 1841.863,398.302 	"/>
	<polygon style="fill:#A3A3A3;" points="1812.007,381.005 1812.007,381.025 1812.024,381.015 	"/>
	<polygon style="fill:#A3A3A3;" points="1871.857,380.972 1871.857,369.48 1841.84,352.163 1841.84,363.663 1841.856,363.672 
		1841.863,363.668 	"/>
	<polygon style="fill:#A3A3A3;" points="1841.84,352.118 1841.84,352.163 1841.879,352.141 	"/>
	<polygon style="fill:#A3A3A3;" points="1931.868,334.798 1931.868,334.832 1931.897,334.815 	"/>
	<polygon style="fill:#A3A3A3;" points="1961.885,363.546 1961.885,352.115 1951.341,346.032 1931.868,334.832 1931.868,346.343 
		1931.974,346.404 1932.074,346.347 	"/>
	<polygon style="fill:#A3A3A3;" points="1981.942,352 1981.942,340.624 1952.007,323.353 1952.007,334.788 1952.05,334.763 	"/>
	<polygon style="fill:#A3A3A3;" points="1971.953,288.754 1972.055,288.695 1971.936,288.626 1971.953,311.702 2001.953,329.009 
		2001.953,306.01 	"/>
	<polygon style="fill:#A3A3A3;" points="1992.024,288.624 2019.668,304.566 2019.668,281.621 1992.007,265.663 	"/>
	<polygon style="fill:#A3A3A3;" points="1701.676,582.972 1701.69,571.547 1691.781,577.264 	"/>
	<polygon style="fill:#A3A3A3;" points="1671.768,554.204 1671.768,554.196 1641.812,536.914 1641.871,548.46 1671.733,565.688 
		1671.733,565.697 1671.756,565.71 1671.768,565.703 	"/>
	<polygon style="fill:#A3A3A3;" points="1781.776,536.873 1781.791,525.369 1781.761,525.352 1771.784,531.108 	"/>
	<polygon style="fill:#A3A3A3;" points="1871.818,473.341 1871.832,461.844 1861.861,467.597 	"/>
	<polygon style="fill:#A3A3A3;" points="1921.924,432.944 1931.899,438.699 1931.899,427.19 	"/>
	<polygon style="fill:#A3A3A3;" points="1991.985,415.629 1991.985,415.614 1991.972,415.622 	"/>
	<polygon style="fill:#A3A3A3;" points="1981.967,409.849 1991.932,415.598 1991.932,404.1 	"/>
	<polygon style="fill:#D6D6D6;" points="1621.813,571.517 1621.74,571.475 1601.729,583.02 1631.746,600.337 1651.757,588.792 	"/>
	<polygon style="fill:#D6D6D6;" points="1611.735,623.427 1631.718,611.898 1601.743,594.605 1581.732,606.15 1611.735,623.459 	"/>
	<polygon style="fill:#D6D6D6;" points="1651.695,577.258 1671.674,565.732 1641.657,548.415 1621.646,559.959 1621.755,560.022 
		1651.663,577.277 	"/>
	<polygon style="fill:#D6D6D6;" points="1691.779,542.606 1661.824,525.323 1641.812,536.868 1671.775,554.154 1691.779,542.613 	
		"/>
	<polygon style="fill:#D6D6D6;" points="1701.691,513.774 1711.774,507.957 1711.801,507.972 1721.796,502.206 1721.796,513.739 
		1721.807,513.745 1751.813,496.433 1721.796,479.116 1701.751,490.719 1691.685,484.911 1671.677,496.454 1671.674,496.456 
		1701.69,513.773 	"/>
	<polygon style="fill:#D6D6D6;" points="1691.768,531.05 1701.785,525.296 1701.676,525.233 1671.768,507.978 1671.733,507.998 
		1661.674,513.777 1661.824,513.864 1691.691,531.094 	"/>
	<polygon style="fill:#D6D6D6;" points="1751.778,484.869 1771.73,473.359 1741.713,456.041 1721.702,467.586 1721.796,467.64 
		1751.718,484.903 	"/>
	<polygon style="fill:#D6D6D6;" points="1781.788,456.051 1801.799,444.506 1801.841,444.482 1781.84,432.943 1771.824,427.164 
		1741.871,444.493 1741.868,444.495 1771.843,461.788 	"/>
	<polygon style="fill:#D6D6D6;" points="1801.841,444.53 1801.841,456.004 1811.785,450.267 	"/>
	<polygon style="fill:#D6D6D6;" points="1811.847,438.709 1831.807,427.194 1801.852,409.911 1781.888,421.428 1781.84,421.456 
		1811.847,438.768 	"/>
	<polygon style="fill:#D6D6D6;" points="1871.88,380.985 1871.857,380.972 1841.863,363.668 1841.856,363.672 1812.024,381.015 
		1812.007,381.025 1841.908,398.276 	"/>
	<polygon style="fill:#D6D6D6;" points="1871.88,369.467 1871.88,369.44 1881.931,363.641 1891.834,357.929 1891.883,357.9 
		1901.897,352.123 1901.897,363.668 1911.902,357.895 1911.902,369.44 1921.991,363.62 1931.914,357.895 1931.914,369.345 
		1931.914,369.424 1931.983,369.384 1931.996,369.392 1941.919,363.668 1941.919,375.117 1942.002,375.165 1961.93,363.668 
		1961.93,363.572 1961.885,363.546 1932.074,346.347 1931.974,346.404 1921.977,352.172 1911.88,346.347 1911.831,346.375 
		1901.852,340.618 1891.949,346.331 1882.046,340.618 1882,340.644 1871.88,334.806 1841.879,352.141 1841.84,352.163 
		1871.857,369.48 	"/>
	<polygon style="fill:#D6D6D6;" points="2001.953,329.026 1972.018,311.756 1952.007,323.301 1981.948,340.574 2001.953,329.033 	
		"/>
	<polygon style="fill:#D6D6D6;" points="2012.018,254.078 1992.007,265.623 2019.668,281.581 2019.668,281.432 2019.668,272.681 
		2019.668,258.492 	"/>
	<polygon style="fill:#D6D6D6;" points="1961.93,352.123 1962.037,352.061 1971.936,346.35 1971.936,357.755 1972.058,357.825 
		1981.942,352.123 1981.942,352 1952.05,334.763 1952.007,334.788 1951.93,334.832 1941.896,329.046 1931.897,334.815 
		1931.868,334.832 1951.341,346.032 	"/>
	<polygon style="fill:#D6D6D6;" points="1991.994,288.607 1991.876,288.675 1981.981,282.969 1972.055,288.695 1971.953,288.754 
		2001.953,306.01 2001.953,305.943 2002,305.916 2011.958,300.171 2011.958,311.644 2012.021,311.68 2019.668,307.267 
		2019.668,304.566 1992.024,288.624 	"/>
	<polygon style="fill:#D6D6D6;" points="1841.863,409.818 1811.882,392.53 1801.854,398.315 1831.899,415.596 1841.863,409.847 	"/>
	<polygon style="fill:#FFFFFF;" points="2011.958,311.716 2011.958,311.644 2011.958,300.171 2002,305.916 2001.953,305.943 
		2001.953,306.01 2001.953,329.009 2001.953,329.026 2001.953,329.033 1981.948,340.574 1981.942,340.578 1981.942,340.624 
		1981.942,352 1981.942,352.123 1972.058,357.825 1971.936,357.895 1971.936,357.755 1971.936,346.35 1962.037,352.061 
		1961.93,352.123 1961.93,352.123 1961.93,363.572 1961.93,363.668 1942.002,375.165 1941.919,375.213 1941.919,375.117 
		1941.919,363.668 1931.996,369.392 1931.914,369.44 1931.914,369.424 1931.914,369.345 1931.914,357.895 1921.991,363.62 
		1911.902,369.44 1911.902,357.895 1901.897,363.668 1901.897,352.123 1891.883,357.9 1891.834,357.929 1881.931,363.641 
		1871.88,369.44 1871.88,369.467 1871.88,380.985 1841.908,398.276 1841.863,398.302 1841.863,409.774 1841.863,409.818 
		1841.863,409.847 1831.899,415.596 1831.858,415.62 1831.858,415.66 1831.858,427.164 1831.823,427.185 1831.807,427.194 
		1811.847,438.709 1811.847,438.768 1811.847,450.254 1811.845,450.255 1801.841,456.026 1801.841,456.004 1801.841,444.53 
		1801.841,444.484 1801.841,444.482 1801.799,444.506 1781.788,456.051 1771.843,461.788 1771.824,461.799 1771.824,473.319 
		1771.824,473.344 1751.813,484.889 1751.813,496.433 1721.807,513.745 1721.796,513.751 1721.796,513.739 1721.796,502.206 
		1711.801,507.972 1701.785,513.751 1701.785,525.296 1691.79,531.062 1691.779,531.068 1691.779,542.568 1691.779,542.606 
		1691.779,542.613 1671.775,554.154 1671.768,554.158 1671.768,554.196 1671.768,554.204 1671.768,565.703 1671.756,565.71 
		1651.757,577.247 1651.757,577.294 1651.757,588.792 1631.746,600.337 1631.746,600.373 1631.746,611.882 1631.718,611.898 
		1611.735,623.427 1611.735,623.459 1611.735,634.972 1671.754,600.363 1671.754,588.818 1691.781,577.264 1701.69,571.547 
		1701.77,571.501 1701.77,583.046 1731.787,565.728 1731.787,554.183 1771.784,531.108 1781.761,525.352 1781.815,525.321 
		1781.815,536.866 1811.832,519.549 1811.832,508.004 1821.837,502.232 1821.837,490.687 1861.861,467.597 1871.832,461.844 
		1871.865,461.825 1871.865,473.369 1921.893,444.507 1921.893,432.962 1921.924,432.944 1931.899,427.19 1931.899,438.699 
		1931.899,438.735 1981.967,409.849 1991.932,404.1 1991.932,415.598 1991.932,415.645 1991.972,415.622 1991.985,415.614 
		2019.668,399.644 2019.668,307.267 2012.021,311.68 	"/>
	<polygon style="fill:#A3A3A3;" points="1803.573,-66.009 1773.556,-83.327 1773.556,-71.782 1803.573,-54.465 	"/>
	<polygon style="fill:#A3A3A3;" points="1823.584,-66.01 1833.59,-60.237 1833.59,-71.782 	"/>
	<polygon style="fill:#A3A3A3;" points="1823.584,-77.554 1823.584,-77.555 1823.584,-89.099 1793.568,-106.416 1793.568,-94.872 
		1813.975,-83.098 	"/>
	<polygon style="fill:#A3A3A3;" points="1853.601,-83.327 1863.607,-77.554 1863.607,-89.099 	"/>
	<polygon style="fill:#A3A3A3;" points="1853.601,-117.961 1823.584,-135.279 1823.584,-123.734 1853.601,-106.416 	"/>
	<polygon style="fill:#A3A3A3;" points="1463.383,84.074 1463.383,95.618 1493.4,112.936 1493.4,101.391 	"/>
	<polygon style="fill:#A3A3A3;" points="1503.405,84.074 1473.389,66.756 1473.389,78.301 1503.405,95.618 	"/>
	<polygon style="fill:#A3A3A3;" points="1513.411,66.756 1483.394,49.439 1483.394,60.984 1513.411,78.301 	"/>
	<polygon style="fill:#A3A3A3;" points="1523.416,95.619 1533.422,101.391 1533.422,89.846 	"/>
	<polygon style="fill:#A3A3A3;" points="1583.45,60.984 1573.445,66.756 1583.45,72.529 	"/>
	<polygon style="fill:#A3A3A3;" points="1523.417,49.439 1523.417,37.895 1493.4,20.577 1493.4,32.122 1533.422,55.211 
		1533.422,43.667 	"/>
	<polygon style="fill:#A3A3A3;" points="1533.422,9.032 1503.405,-8.285 1503.405,14.805 1533.422,32.122 	"/>
	<polygon style="fill:#A3A3A3;" points="1543.428,-8.285 1513.411,-25.602 1513.411,-14.058 1543.428,3.26 	"/>
	<polygon style="fill:#A3A3A3;" points="1563.439,-31.375 1533.422,-48.692 1533.422,-37.147 1563.439,-19.83 	"/>
	<polygon style="fill:#A3A3A3;" points="1583.45,-54.465 1553.433,-71.782 1553.433,-60.237 1583.45,-42.92 	"/>
	<polygon style="fill:#A3A3A3;" points="1693.512,20.577 1703.517,26.349 1703.517,14.805 	"/>
	<polygon style="fill:#A3A3A3;" points="1623.473,49.439 1633.478,55.211 1633.478,43.667 	"/>
	<polygon style="fill:#D6D6D6;" points="1503.405,95.618 1473.389,78.301 1463.383,84.074 1493.4,101.391 	"/>
	<polygon style="fill:#D6D6D6;" points="1513.411,78.301 1483.394,60.984 1473.389,66.756 1503.405,84.074 	"/>
	<polygon style="fill:#D6D6D6;" points="1533.422,55.211 1503.405,37.894 1483.394,49.439 1513.411,66.756 	"/>
	<polygon style="fill:#D6D6D6;" points="1533.422,32.122 1503.405,14.805 1493.4,20.577 1523.417,37.894 	"/>
	<polygon style="fill:#D6D6D6;" points="1543.428,3.26 1513.411,-14.058 1503.405,-8.285 1533.422,9.032 	"/>
	<polygon style="fill:#D6D6D6;" points="1563.439,-19.83 1533.422,-37.147 1513.411,-25.602 1543.428,-8.285 	"/>
	<polygon style="fill:#D6D6D6;" points="1583.45,-42.92 1553.433,-60.237 1533.422,-48.692 1563.439,-31.375 	"/>
	<polygon style="fill:#D6D6D6;" points="1593.456,-60.237 1603.461,-66.009 1603.461,-54.465 1613.468,-60.237 1623.473,-66.009 
		1623.473,-54.465 1633.478,-60.237 1643.484,-66.009 1643.484,-54.465 1673.5,-71.782 1673.522,-60.25 1683.506,-66.009 
		1683.506,-54.484 1683.506,-42.92 1693.522,-48.699 1703.517,-54.465 1703.517,-42.926 1703.522,-42.923 1723.529,-54.465 
		1733.534,-60.237 1733.534,-48.693 1733.534,-48.692 1733.534,-48.692 1733.534,-48.692 1743.54,-54.465 1743.54,-54.465 
		1743.54,-54.464 1743.54,-42.92 1753.545,-48.692 1763.551,-54.465 1763.551,-42.92 1783.562,-54.465 1753.545,-71.782 
		1743.54,-66.01 1733.534,-71.782 1723.529,-66.01 1703.517,-77.554 1683.506,-66.01 1643.484,-89.099 1623.473,-77.554 
		1613.467,-83.327 1603.461,-77.555 1593.456,-83.327 1583.45,-77.554 1573.445,-83.327 1553.433,-71.782 1583.45,-54.465 	"/>
	<polygon style="fill:#D6D6D6;" points="1823.584,-77.554 1813.975,-83.098 1793.568,-94.872 1773.556,-83.327 1803.573,-66.009 	
		"/>
	<polygon style="fill:#D6D6D6;" points="1863.607,-123.734 1873.612,-129.506 1873.612,-117.962 1873.612,-106.416 
		1883.618,-112.189 1893.623,-117.961 1893.623,-106.416 1913.635,-117.961 1883.618,-135.279 1873.612,-129.506 1843.595,-146.823 
		1823.584,-135.279 1853.601,-117.961 	"/>
	<polygon style="fill:#D6D6D6;" points="1853.601,-106.416 1823.584,-123.734 1793.568,-106.416 1823.584,-89.099 	"/>
	<polygon style="fill:#FFFFFF;" points="1583.45,72.529 1623.473,49.439 1633.478,43.667 1633.478,55.211 1693.512,20.577 
		1703.517,14.805 1703.517,26.349 1743.54,3.26 1743.54,-8.285 1773.556,-25.602 1773.556,-37.147 1783.562,-42.92 
		1783.562,-54.465 1763.551,-42.92 1763.551,-54.465 1753.545,-48.692 1743.54,-42.92 1743.54,-54.464 1743.54,-54.465 
		1743.54,-54.465 1733.534,-48.692 1733.534,-48.692 1733.534,-48.692 1733.534,-48.693 1733.534,-60.237 1723.529,-54.465 
		1703.522,-42.923 1703.517,-42.92 1703.517,-42.926 1703.517,-54.465 1693.522,-48.699 1683.506,-42.92 1683.506,-54.484 
		1683.506,-66.009 1673.522,-60.25 1673.5,-71.782 1643.484,-54.465 1643.484,-66.009 1633.478,-60.237 1623.473,-54.465 
		1623.473,-66.009 1613.468,-60.237 1603.461,-54.465 1603.461,-66.009 1593.456,-60.237 1583.45,-54.465 1583.45,-42.92 
		1563.439,-31.375 1563.439,-19.83 1543.428,-8.285 1543.428,3.26 1533.422,9.032 1533.422,32.122 1523.417,37.894 1523.417,37.895 
		1523.417,49.439 1533.422,43.667 1533.422,55.211 1513.411,66.756 1513.411,78.301 1503.405,84.074 1503.405,95.618 
		1493.4,101.391 1493.4,112.936 1523.416,95.619 1533.422,89.846 1533.422,101.391 1563.439,84.074 1563.439,72.529 
		1573.445,66.756 1583.45,60.984 	"/>
	<polygon style="fill:#FFFFFF;" points="1893.623,-117.961 1883.618,-112.189 1873.612,-106.416 1873.612,-117.962 
		1873.612,-129.506 1863.607,-123.734 1853.601,-117.961 1853.601,-117.961 1853.601,-106.416 1823.584,-89.099 1823.584,-77.555 
		1823.584,-77.554 1803.573,-66.009 1803.573,-54.465 1823.584,-66.01 1833.59,-71.782 1833.59,-60.237 1843.595,-66.009 
		1843.595,-77.554 1853.601,-83.327 1863.607,-89.099 1863.607,-77.554 1913.635,-106.416 1913.635,-117.961 1893.623,-106.416 	"/>
</g>
</svg>
